<?xml version="1.0" standalone="no"?>
<!DOCTYPE svg PUBLIC "-//W3C//DTD SVG 20010904//EN"
 "http://www.w3.org/TR/2001/REC-SVG-20010904/DTD/svg10.dtd">
<svg version="1.0" xmlns="http://www.w3.org/2000/svg"
 width="768.000000pt" height="768.000000pt" viewBox="0 0 768.000000 768.000000"
 preserveAspectRatio="xMidYMid meet">
<metadata>
Created by potrace 1.14, written by Peter Selinger 2001-2017
</metadata>
<g transform="translate(0.000000,768.000000) scale(0.100000,-0.100000)"
fill="#000000" stroke="none">
<path d="M3637 7674 c-1 -1 -36 -5 -77 -8 -42 -4 -87 -8 -100 -11 -14 -2 -45
-6 -70 -9 -25 -3 -55 -8 -66 -10 -12 -2 -37 -7 -55 -10 -19 -3 -81 -17 -139
-31 -58 -14 -116 -27 -130 -30 -14 -3 -32 -8 -40 -12 -44 -17 -238 -85 -257
-90 -13 -3 -23 -9 -23 -14 0 -5 -3 -8 -7 -7 -8 2 -40 -11 -128 -53 -117 -55
-365 -205 -365 -221 0 -4 -5 -8 -11 -8 -13 0 -148 -109 -228 -184 -185 -174
-321 -358 -431 -582 -55 -110 -130 -315 -144 -389 -36 -195 -39 -231 -39 -400
0 -99 3 -196 7 -215 3 -19 9 -51 12 -70 14 -99 80 -316 105 -346 6 -8 8 -14 4
-14 -4 0 -3 -6 2 -12 6 -7 25 -40 42 -73 67 -122 183 -266 302 -370 174 -153
454 -299 709 -370 3 -1 25 -8 50 -15 25 -7 47 -14 50 -15 3 0 23 -5 45 -10 22
-5 42 -9 45 -10 45 -12 93 -21 157 -31 26 -3 57 -8 68 -11 11 -2 43 -6 70 -9
28 -2 66 -7 85 -10 49 -7 221 -21 360 -28 47 -3 119 -7 160 -10 41 -3 127 -8
190 -11 63 -3 152 -8 198 -10 46 -3 118 -8 160 -10 154 -9 337 -23 397 -30 22
-3 63 -7 90 -10 28 -2 70 -7 95 -10 25 -4 59 -8 75 -10 50 -6 109 -15 132 -19
11 -3 43 -8 70 -12 26 -3 57 -8 68 -11 11 -2 29 -6 40 -7 11 -2 31 -6 45 -10
14 -3 36 -8 50 -10 14 -3 52 -12 85 -21 33 -8 69 -17 80 -19 23 -4 132 -34
155 -43 8 -3 21 -7 28 -9 8 -1 21 -6 30 -10 9 -4 24 -8 32 -10 26 -5 264 -105
274 -115 6 -5 18 -9 27 -9 10 0 19 -3 21 -7 2 -5 28 -21 58 -36 70 -37 261
-164 320 -214 122 -102 261 -259 345 -386 21 -31 40 -56 42 -54 6 7 -61 161
-119 274 -181 355 -449 626 -833 845 -84 48 -226 116 -310 150 -27 11 -61 25
-75 31 -14 5 -31 11 -38 13 -8 1 -29 10 -47 18 -18 9 -47 19 -64 22 -17 4 -34
11 -37 15 -3 5 -15 9 -28 9 -12 0 -26 3 -30 7 -3 4 -17 8 -29 10 -12 2 -29 6
-37 10 -8 3 -18 7 -22 8 -5 2 -11 4 -15 5 -5 1 -12 3 -18 4 -5 1 -17 5 -25 8
-16 7 -289 76 -330 84 -14 3 -41 9 -60 14 -19 5 -46 11 -60 14 -44 7 -374 76
-395 82 -11 3 -36 8 -55 11 -19 3 -40 9 -46 14 -6 5 -13 7 -15 4 -3 -2 -34 3
-69 11 -36 9 -76 18 -90 20 -14 3 -43 10 -65 16 -22 5 -47 11 -55 13 -55 11
-234 63 -335 97 -322 107 -576 253 -736 423 -30 32 -59 63 -65 70 -41 42 -196
305 -179 305 2 0 -4 19 -14 43 -18 42 -46 150 -56 217 -3 19 -8 42 -10 50 -15
58 -22 342 -10 428 12 87 18 122 31 182 16 68 43 154 65 205 7 17 13 32 14 35
12 42 104 194 170 280 86 111 298 300 395 352 14 7 45 26 69 42 69 44 258 134
391 186 100 39 339 112 445 135 87 20 69 24 -98 22 -98 -1 -179 -2 -180 -3z"/>
<path d="M4177 7594 c-1 -1 -36 -4 -79 -8 -42 -3 -82 -8 -90 -11 -7 -2 -31 -6
-53 -9 -22 -3 -51 -7 -65 -10 -14 -3 -38 -8 -55 -12 -16 -3 -68 -17 -115 -31
-47 -15 -91 -28 -98 -29 -8 -1 -21 -6 -30 -10 -9 -4 -19 -8 -22 -9 -146 -51
-446 -216 -526 -290 -6 -5 -28 -23 -50 -40 -89 -68 -343 -348 -329 -363 1 -2
36 19 76 46 119 80 220 129 379 182 36 12 72 25 80 28 8 3 20 6 25 7 6 2 66
16 135 33 69 17 145 34 170 38 25 4 47 8 50 9 3 0 26 4 51 8 25 4 57 10 70 12
36 5 136 18 249 30 206 22 515 22 680 -1 25 -3 61 -8 80 -10 19 -3 62 -9 95
-15 33 -6 69 -12 80 -14 168 -26 486 -120 665 -198 164 -70 388 -196 446 -250
6 -7 32 -28 55 -47 24 -19 63 -54 87 -78 24 -24 45 -42 47 -40 7 6 -91 194
-134 258 -163 242 -435 467 -726 602 -120 55 -177 80 -194 83 -9 2 -36 11 -60
19 -48 18 -208 62 -256 71 -212 40 -278 47 -483 50 -84 0 -153 0 -155 -1z"/>
<path d="M4327 7013 c-2 -1 -19 -3 -39 -5 -20 -1 -35 -5 -32 -9 2 -4 12 -6 21
-5 10 2 33 -1 53 -6 19 -4 51 -11 70 -14 100 -17 359 -98 432 -135 10 -5 22
-9 28 -9 21 0 327 -149 400 -195 22 -14 42 -25 45 -25 5 0 187 -121 195 -130
3 -3 28 -22 55 -43 55 -41 219 -205 250 -250 11 -16 28 -38 37 -49 9 -10 36
-49 59 -86 23 -37 50 -79 60 -93 44 -65 135 -260 169 -364 12 -38 25 -77 28
-85 9 -27 11 -35 27 -95 24 -95 30 -134 39 -230 5 -50 12 -53 21 -8 5 21 9 43
10 48 4 15 16 86 21 120 10 61 11 293 2 365 -9 76 -15 115 -18 115 -1 0 -3 9
-5 20 -9 64 -45 196 -56 210 -5 5 -9 14 -9 21 0 19 -69 163 -107 222 -18 29
-33 56 -33 61 0 5 -3 11 -7 13 -5 2 -28 29 -52 61 -119 156 -352 310 -624 412
-144 54 -367 115 -477 130 -25 3 -52 8 -60 10 -15 4 -53 9 -175 21 -68 6 -323
12 -328 7z"/>
<path d="M1335 4815 c4 -11 8 -27 10 -35 15 -61 77 -216 130 -325 107 -222
251 -420 411 -565 94 -85 308 -240 332 -240 5 0 15 -7 22 -15 6 -8 15 -14 18
-13 4 1 56 -23 116 -51 88 -43 257 -111 311 -125 6 -2 17 -6 25 -9 15 -6 198
-56 300 -82 3 0 30 -7 60 -14 30 -7 84 -19 120 -28 36 -8 76 -17 90 -19 14 -3
77 -16 140 -30 115 -26 133 -30 180 -38 14 -2 48 -10 75 -16 28 -7 59 -14 70
-15 11 -2 52 -11 90 -20 39 -9 79 -19 90 -21 47 -9 297 -74 375 -98 47 -15 92
-28 100 -31 66 -17 280 -105 390 -160 289 -145 503 -339 623 -565 91 -172 136
-380 140 -640 1 -81 -11 -248 -18 -260 -2 -3 -6 -25 -10 -49 -3 -24 -11 -55
-16 -70 -6 -14 -11 -28 -11 -31 -4 -32 -70 -188 -103 -243 -19 -32 -35 -62
-35 -68 0 -5 -4 -9 -8 -9 -5 0 -23 -21 -40 -47 -38 -58 -134 -159 -222 -233
-36 -30 -67 -57 -70 -60 -41 -42 -470 -283 -470 -263 0 3 -6 1 -12 -5 -13 -10
-227 -92 -250 -96 -7 -1 -18 -5 -24 -8 -6 -4 -44 -16 -85 -28 -41 -12 -105
-30 -144 -41 -38 -11 -79 -21 -90 -23 -11 -2 -21 -5 -22 -6 -4 -4 -13 -6 -65
-14 -100 -17 -40 -24 166 -21 118 2 231 6 253 9 34 4 81 9 202 21 20 2 47 6
61 9 14 2 43 7 65 10 22 2 76 12 120 21 44 10 89 19 100 21 55 11 294 78 322
90 17 8 36 14 41 14 23 0 246 95 367 156 130 66 320 184 405 253 24 20 56 45
70 56 14 11 77 72 140 135 115 115 225 252 292 365 60 100 152 292 162 340 2
6 12 42 24 80 51 169 66 276 66 480 0 142 -5 211 -18 245 -3 8 -7 26 -10 40
-14 84 -93 256 -166 363 -78 115 -172 216 -311 332 -46 39 -225 165 -234 165
-3 0 -24 12 -47 26 -46 29 -178 97 -278 142 -148 67 -467 171 -620 201 -30 6
-66 14 -80 17 -46 10 -65 13 -155 28 -49 8 -115 18 -145 21 -30 3 -71 8 -90
10 -58 7 -190 17 -270 21 -217 10 -307 14 -430 19 -269 11 -570 29 -655 40
-16 2 -61 7 -100 10 -38 4 -78 9 -89 11 -10 2 -44 6 -75 9 -31 4 -63 8 -72 11
-9 3 -34 7 -55 10 -22 2 -66 11 -99 18 -33 8 -94 22 -135 32 -231 53 -485 159
-670 279 -217 140 -407 338 -520 540 -18 33 -40 69 -48 80 l-14 20 7 -20z"/>
<path d="M1017 2600 c-3 -8 -9 -33 -13 -55 -4 -22 -9 -47 -11 -55 -4 -16 -8
-47 -21 -140 -16 -124 -7 -377 17 -485 53 -234 192 -458 370 -595 18 -14 44
-35 59 -48 106 -88 379 -222 603 -296 91 -30 267 -79 276 -78 2 1 17 -4 35 -9
18 -5 47 -12 63 -14 17 -3 44 -8 60 -12 17 -3 37 -7 45 -8 8 -2 29 -5 45 -8
41 -8 170 -26 230 -33 79 -9 554 -14 559 -6 3 5 -10 9 -27 10 -135 10 -514
105 -682 172 -11 5 -58 23 -105 41 -47 18 -113 45 -148 61 -34 15 -65 28 -68
28 -9 0 -348 171 -354 178 -3 4 -30 20 -60 36 -30 16 -57 32 -60 36 -3 3 -23
17 -45 30 -22 13 -42 26 -45 29 -3 4 -37 32 -75 63 -128 103 -270 259 -363
399 -122 182 -230 465 -257 671 -9 68 -21 106 -28 88z"/>
<path d="M1080 1252 c-1 -34 89 -189 162 -279 46 -58 189 -192 265 -249 90
-68 187 -134 196 -134 3 0 22 -11 42 -24 125 -85 525 -249 710 -292 6 -1 48
-11 95 -23 107 -27 191 -43 295 -56 17 -2 48 -7 70 -10 166 -23 544 -23 675 0
14 2 59 9 100 14 98 14 119 18 200 36 3 1 21 5 40 9 39 8 197 54 220 63 8 3
21 7 29 9 35 7 187 71 306 129 123 60 346 197 353 216 2 5 8 9 13 9 5 0 17 8
27 17 10 10 35 32 56 48 80 64 256 249 256 268 0 4 -21 -8 -47 -27 -90 -63
-240 -132 -403 -184 -86 -28 -181 -55 -187 -53 -2 0 -21 -6 -43 -14 -22 -8
-44 -14 -48 -14 -4 0 -20 -2 -37 -5 -28 -6 -44 -9 -94 -20 -10 -2 -36 -7 -57
-10 -22 -4 -46 -8 -54 -11 -22 -6 -89 -16 -135 -20 -22 -2 -49 -6 -60 -8 -30
-7 -137 -20 -260 -31 -351 -34 -627 -34 -925 -1 -25 3 -70 7 -100 10 -108 10
-142 14 -178 21 -21 3 -50 8 -67 9 -26 3 -72 11 -165 30 -14 3 -38 8 -53 10
-15 3 -56 12 -90 21 -34 8 -80 20 -102 25 -22 6 -60 17 -85 25 -25 9 -52 17
-60 19 -33 7 -116 38 -124 46 -6 5 -17 9 -25 9 -35 0 -318 141 -430 214 -92
61 -240 173 -263 200 -11 13 -17 16 -18 8z"/>
</g>
</svg>
