<svg width="36" height="48" viewBox="0 0 36 48" fill="none" xmlns="http://www.w3.org/2000/svg">
<path d="M17.5679 47.4675C28.8775 47.8747 36.1741 41.7146 35.9964 34.2625C35.8853 29.5536 30.7544 26.0367 24.2204 24.8854C17.4162 23.686 6.41758 25.996 2.26025 17.6406C4.57399 25.7739 10.8859 26.6253 16.0797 27.7507C20.5332 28.7132 27.6521 29.9386 28.5554 35.8322C29.0811 39.2639 28.9737 45.0242 17.5679 47.4675Z" fill="#4FA149"/>
<path d="M26.5526 41.6072C24.2611 44.6836 19.5707 47.0899 13.8733 46.9603C8.17966 46.8307 1.99365 43.8099 0.70166 40.082C4.63686 43.7396 10.1084 44.1172 13.4143 44.3578C15.6391 44.5207 23.5725 44.0283 26.5526 41.6072Z" fill="#1D90D1"/>
<path d="M15.0246 43.2511C10.8302 43.6398 5.79555 42.4033 3.10791 40.5375C0.701625 38.8642 -0.760657 36.2432 0.412871 31.501C0.827492 35.2326 2.50079 37.413 4.47394 39.0567C6.28791 40.5708 11.3448 42.9068 15.0246 43.2474V43.2511Z" fill="#8AB829"/>
<path d="M19.0634 0.0191088C9.35311 -0.388109 2.11204 5.76828 2.26382 13.2167C2.36007 17.9256 5.35867 21.424 11.4706 22.5938C18.2564 23.8932 31.1541 21.7719 36 30.1273C33.3086 21.9941 24.8089 20.8539 19.6113 19.7284C15.1578 18.7659 9.42715 17.5406 8.65343 11.647C8.20179 8.21529 8.69786 2.27732 19.0634 0.0191088Z" fill="#8AB829"/>
<path d="M10.5081 5.87173C12.4738 2.79539 16.5016 0.389099 21.3919 0.518669C26.2822 0.648238 31.1688 3.27664 32.7015 7.39695C29.9583 4.34652 24.6423 3.27294 21.7843 3.12116C19.6002 3.0027 13.0625 3.45064 10.5044 5.87173H10.5081Z" fill="#4FA149"/>
<path d="M20.4036 4.22827C24.0056 3.83956 28.4628 5.07602 30.6322 6.94182C32.6979 8.71877 33.9529 12.343 32.9459 15.9784C32.7016 12.232 30.3582 9.22224 29.4586 8.42261C27.6669 6.61235 23.5577 4.57256 20.3999 4.23197L20.4036 4.22827Z" fill="#1D90D1"/>
</svg>
