<svg width="52" height="94" viewBox="0 0 52 94" fill="none" xmlns="http://www.w3.org/2000/svg">
<path d="M0.192224 92.7148C0.0142388 92.6236 0 92.5745 0 92.2308C0 91.5925 0.0498358 91.0804 0.0640745 90.877C0.0783133 90.7367 0.0996715 90.6736 0.170865 90.6736C0.249179 90.6736 0.263418 90.7086 0.263418 90.8139C0.263418 90.9261 0.263418 91.1085 0.299015 91.2838C0.491238 92.2308 1.34557 92.5815 2.21413 92.5815C3.45291 92.5815 4.06517 91.7047 4.06517 90.884C4.06517 90.0072 3.68785 89.4952 2.57722 88.5903L1.99343 88.1203C0.619387 87.0121 0.313253 86.2194 0.313253 85.3496C0.313253 83.9888 1.34557 83.0559 2.99015 83.0559C3.49562 83.0559 3.87295 83.105 4.19332 83.1822C4.43538 83.2313 4.54217 83.2453 4.64896 83.2453C4.75576 83.2453 4.77711 83.2734 4.77711 83.3365C4.77711 83.3996 4.72728 83.8205 4.72728 84.6903C4.72728 84.8937 4.6988 84.9849 4.63473 84.9849C4.55641 84.9849 4.54217 84.9218 4.53505 84.8165C4.52081 84.6622 4.4425 84.3185 4.36419 84.1782C4.28588 84.0379 3.93702 83.5048 2.74809 83.5048C1.85816 83.5048 1.15334 84.052 1.15334 84.9849C1.15334 85.7144 1.48795 86.1703 2.73385 87.1243L3.09694 87.4049C4.62049 88.5903 4.98358 89.3829 4.98358 90.4C4.98358 90.9261 4.77711 91.8941 3.88719 92.5184C3.33188 92.8971 2.63418 93.0515 1.93648 93.0515C1.33133 93.0515 0.733298 92.9603 0.199343 92.7078L0.192224 92.7148Z" fill="white"/>
<path d="M11.455 89.1165C11.3909 89.1165 11.3553 89.1515 11.3269 89.2217L10.5508 91.4803C10.4369 91.796 10.3729 92.1046 10.3729 92.3361C10.3729 92.5886 10.622 92.7078 10.8356 92.7078H10.9495C11.0777 92.7078 11.1204 92.7359 11.1204 92.785C11.1204 92.8622 11.0065 92.8832 10.8855 92.8832C10.5722 92.8832 10.0596 92.8481 9.91722 92.8481C9.77483 92.8481 9.06289 92.8832 8.45774 92.8832C8.28688 92.8832 8.21568 92.8551 8.21568 92.785C8.21568 92.7359 8.27976 92.7078 8.39367 92.7078C8.48622 92.7078 8.60013 92.6938 8.70692 92.6798C9.30495 92.6026 9.56125 92.1186 9.79619 91.4803L12.7294 83.561C12.886 83.1402 12.9358 83.063 13.0142 83.063C13.0925 83.063 13.1423 83.1262 13.2989 83.519C13.4912 84.003 15.5273 89.2708 16.3104 91.2068C16.7732 92.3431 17.1505 92.5465 17.4211 92.6237C17.6133 92.6868 17.8197 92.7008 17.9265 92.7008C18.0049 92.7008 18.0689 92.7149 18.0689 92.778C18.0689 92.8552 17.955 92.8762 17.8126 92.8762C17.6204 92.8762 16.6735 92.8762 15.7836 92.8481C15.5344 92.8341 15.3992 92.8341 15.3992 92.757C15.3992 92.7078 15.4348 92.6798 15.4917 92.6658C15.57 92.6377 15.6483 92.5255 15.57 92.3221L14.3668 89.1866C14.3384 89.1375 14.317 89.1095 14.2529 89.1095H11.4692L11.455 89.1165ZM14.0678 88.6605C14.1319 88.6605 14.1319 88.6255 14.1177 88.5693L12.886 85.1253C12.8219 84.9359 12.7579 84.9359 12.6938 85.1253L11.5547 88.5693C11.5262 88.6325 11.5547 88.6605 11.5903 88.6605H14.0678Z" fill="white"/>
<path d="M21.9489 89.1165C21.9489 84.515 21.9774 86.1704 21.9631 83.7013C21.9631 83.2033 21.9987 83.063 22.1055 83.063C22.2123 83.063 22.4259 83.3436 22.5612 83.4699C22.7534 83.6873 24.6827 85.7425 26.6762 87.8398C27.9577 89.1936 29.3673 90.7438 29.7802 91.1647L29.6378 84.6904C29.6236 83.8627 29.531 83.5821 29.1324 83.4769C28.8974 83.4278 28.691 83.4137 28.577 83.4137C28.4347 83.4137 28.3991 83.3787 28.3991 83.3226C28.3991 83.2454 28.5059 83.2314 28.6554 83.2314C29.2391 83.2314 29.8585 83.2664 30.0009 83.2664C30.1433 83.2664 30.5705 83.2314 31.0973 83.2314C31.2397 83.2314 31.3322 83.2454 31.3322 83.3226C31.3322 83.3717 31.2824 83.3997 31.1899 83.4137C31.0902 83.4278 31.0119 83.4418 30.8553 83.4628C30.4922 83.54 30.3996 83.7294 30.3996 84.6132L30.3711 92.0555C30.3711 92.8972 30.3427 92.9604 30.2572 92.9604C30.1504 92.9604 30.0009 92.8201 29.3103 92.1467C29.168 92.0204 27.3027 90.1476 25.9357 88.6886C24.4336 87.0963 22.9741 85.49 22.5612 85.0341L22.732 91.1436C22.7605 92.1888 22.8886 92.5185 23.2375 92.6237C23.4796 92.6868 23.7715 92.7008 23.8854 92.7008C23.9494 92.7008 23.9922 92.7289 23.9922 92.778C23.9922 92.8552 23.9138 92.8762 23.7572 92.8762C23.0168 92.8762 22.5042 92.8411 22.3832 92.8411C22.2621 92.8411 21.7211 92.8762 21.1444 92.8762C21.0162 92.8762 20.9379 92.8622 20.9379 92.778C20.9379 92.7289 20.9735 92.7008 21.0447 92.7008C21.1515 92.7008 21.3793 92.6868 21.5787 92.6237C21.8991 92.5325 21.9631 92.1677 21.9631 91.0033V89.1165H21.9489Z" fill="white"/>
<path d="M37.6046 87.7554C38.0033 87.3767 39.7689 85.5529 40.552 84.7463C41.3281 83.9536 41.3779 83.8274 41.3779 83.673C41.3779 83.5748 41.3138 83.4696 41.207 83.4275C41.1145 83.3925 41.0931 83.3644 41.0931 83.3153C41.0931 83.2662 41.1714 83.2382 41.2853 83.2382C41.6627 83.2382 41.62 83.2732 42.0614 83.2732C42.46 83.2732 43.2289 83.2382 43.4354 83.2382C43.6134 83.2382 43.6561 83.2732 43.6561 83.3293C43.6561 83.3855 43.6276 83.4065 43.5137 83.4205C43.2645 83.4486 43.0367 83.4977 42.8516 83.5748C42.5241 83.7011 42.2821 83.8554 41.506 84.5919C40.3669 85.6722 38.8932 87.1171 38.5586 87.4819C39.3773 88.3587 41.7267 90.7225 42.339 91.2837C43.3998 92.2657 43.8554 92.5463 44.4748 92.6585C44.5887 92.6866 44.7169 92.6936 44.8522 92.6936C44.959 92.6936 45.0301 92.7216 45.0301 92.7848C45.0301 92.8479 44.9803 92.876 44.8379 92.876H43.8839C42.7591 92.876 42.46 92.7357 41.8549 92.2657C41.0789 91.6625 38.7508 89.2074 37.6117 87.8677V89.1794C37.6117 90.3999 37.6117 91.41 37.6758 91.943C37.7114 92.3148 37.7897 92.5954 38.1813 92.6445C38.3593 92.6726 38.6227 92.6936 38.701 92.6936C38.8149 92.6936 38.8576 92.7427 38.8576 92.7848C38.8576 92.8479 38.8078 92.876 38.6654 92.876C37.9535 92.876 37.1419 92.8409 37.0707 92.8409C36.9995 92.8409 36.2448 92.876 35.8532 92.876C35.7109 92.876 35.6468 92.8619 35.6468 92.7848C35.6468 92.7497 35.6753 92.6936 35.7892 92.6936C35.8675 92.6936 36.0099 92.6796 36.1238 92.6585C36.3801 92.6094 36.4584 92.3148 36.5082 91.943C36.5723 91.41 36.5723 90.3999 36.5723 89.1794V86.9348C36.5723 84.9497 36.5723 84.5919 36.5438 84.1781C36.5153 83.7432 36.3872 83.5257 36.1024 83.4626C35.96 83.4275 35.7251 83.4135 35.6397 83.4135C35.5329 83.4135 35.4973 83.3855 35.4973 83.3364C35.4973 83.2592 35.5614 83.2382 35.7037 83.2382C36.1309 83.2382 36.9995 83.2732 37.0635 83.2732C37.1276 83.2732 37.9463 83.2382 38.3308 83.2382C38.4732 83.2382 38.5373 83.2662 38.5373 83.3293C38.5373 83.3784 38.5088 83.4065 38.3949 83.4205C38.2525 83.4346 38.2382 83.4346 38.1101 83.4486C37.7612 83.4837 37.6545 83.7432 37.6331 84.1851C37.6046 84.5919 37.6046 84.9497 37.6046 86.9418V87.7554Z" fill="white"/>
<path d="M48.7749 86.9418C48.7749 84.9568 48.7749 84.599 48.7464 84.1852C48.718 83.7503 48.5898 83.5328 48.305 83.4697C48.1626 83.4346 47.9918 83.4206 47.9063 83.4206C47.8565 83.4206 47.7996 83.3926 47.7996 83.3435C47.7996 83.2663 47.8636 83.2452 48.006 83.2452C48.4332 83.2452 49.2448 83.2803 49.3089 83.2803C49.3729 83.2803 50.1917 83.2452 50.5761 83.2452C50.7185 83.2452 50.7826 83.2733 50.7826 83.3435C50.7826 83.3926 50.7327 83.4206 50.6758 83.4206C50.5832 83.4206 50.5049 83.4346 50.3483 83.4557C49.9994 83.5188 49.8927 83.7363 49.8713 84.1852C49.8428 84.592 49.8428 84.9498 49.8428 86.9418V89.1865C49.8428 90.407 49.8428 91.417 49.9069 91.9501C49.9425 92.3219 50.0208 92.6025 50.4124 92.6516C50.5904 92.6796 50.868 92.7007 50.9463 92.7007C51.0602 92.7007 51.103 92.7358 51.103 92.7778C51.103 92.841 51.0531 92.8761 50.9107 92.8761C50.1988 92.8761 49.3729 92.841 49.3089 92.841C49.2448 92.841 48.4261 92.8761 48.0416 92.8761C47.8992 92.8761 47.8352 92.848 47.8352 92.7778C47.8352 92.7428 47.8636 92.7007 47.9775 92.7007C48.0559 92.7007 48.1982 92.6867 48.3121 92.6656C48.5684 92.6165 48.6468 92.3219 48.6966 91.9501C48.7607 91.417 48.7607 90.407 48.7607 89.1865V86.9418H48.7749Z" fill="white"/>
<path d="M25.4588 65.2253C41.2283 65.7864 51.409 57.32 51.1598 47.079C51.0032 40.6117 43.8482 35.7788 34.7354 34.1935C25.2452 32.5451 9.90294 35.7226 4.10063 24.233C7.32572 35.414 16.1324 36.5784 23.38 38.1286C29.5881 39.4543 39.5196 41.1378 40.7798 49.2394C41.513 53.9531 41.3635 61.8724 25.4517 65.2323L25.4588 65.2253Z" fill="#4FA149"/>
<path d="M37.989 57.1728C34.7924 61.4025 28.2497 64.7063 20.3044 64.5309C12.3592 64.3556 5.00487 60.3153 1.92929 55.0755C8.74255 59.705 15.1856 60.6029 19.6637 60.9536C22.7678 61.1991 33.8313 60.5047 37.989 57.1728Z" fill="#1D90D1"/>
<path d="M21.9063 59.4385C16.0542 59.9715 8.81375 58.5617 5.28965 55.7068C1.72283 52.8239 -0.106856 49.8077 1.5306 43.2913C2.10728 48.4188 5.16862 51.6314 7.19052 53.6796C9.49009 56.0084 16.7732 58.9685 21.9063 59.4385Z" fill="#8AB829"/>
<path d="M27.5376 0.0264034C13.9965 -0.53475 3.90122 7.92464 4.10768 18.1657C4.24295 24.633 8.42203 29.4449 16.9511 31.0512C26.4127 32.8328 44.4106 29.9219 51.1669 41.4045C47.4078 30.2235 35.554 28.6593 28.3065 27.1161C22.0984 25.7904 14.1033 24.1069 13.0212 16.0052C12.3947 11.2916 13.0852 3.12678 27.5376 0.0264034Z" fill="#8AB829"/>
<path d="M15.4205 8.07178C18.1686 3.84208 23.7858 0.531278 30.6062 0.713652C37.4265 0.889013 43.7414 4.92932 46.3827 10.1691C40.5306 5.53957 34.9988 4.64173 31.1543 4.29101C28.4917 4.0455 18.9873 4.73993 15.4205 8.07178Z" fill="#1D90D1"/>
<path d="M29.225 5.80625C34.2513 5.27315 40.4665 6.68305 43.4923 9.53792C46.5536 12.4208 48.127 15.437 46.7173 21.9534C46.219 16.8259 43.5919 13.6133 41.8548 11.5651C39.8827 9.2363 33.6248 6.27622 29.2179 5.80625H29.225Z" fill="#4FA149"/>
<path d="M25.299 65.2253C41.0685 65.7864 51.2492 57.32 51 47.079C50.8434 40.6117 43.6884 35.7788 34.5756 34.1935C25.0854 32.5451 9.74315 35.7226 3.94084 24.233C7.16593 35.414 15.9726 36.5784 23.2202 38.1286C29.4283 39.4543 39.3598 41.1378 40.62 49.2394C41.3533 53.9531 41.2038 61.8724 25.2919 65.2323L25.299 65.2253Z" fill="#4FA149"/>
<path d="M37.8292 57.1728C34.6326 61.4025 28.0899 64.7063 20.1447 64.5309C12.1994 64.3556 4.84508 60.3153 1.7695 55.0755C8.58276 59.705 15.0258 60.6029 19.5039 60.9536C22.608 61.1991 33.6715 60.5047 37.8292 57.1728Z" fill="#1D90D1"/>
<path d="M21.7465 59.4385C15.8944 59.9715 8.65396 58.5617 5.12986 55.7068C1.56304 52.8239 -0.266646 49.8077 1.37081 43.2913C1.94749 48.4188 5.00883 51.6314 7.03073 53.6796C9.3303 56.0084 16.6134 58.9685 21.7465 59.4385Z" fill="#8AB829"/>
<path d="M27.3778 0.0264034C13.8367 -0.53475 3.74143 7.92464 3.94789 18.1657C4.08316 24.633 8.26224 29.4449 16.7913 31.0512C26.253 32.8328 44.2508 29.9219 51.0071 41.4045C47.248 30.2235 35.3943 28.6593 28.1467 27.1161C21.9386 25.7904 13.9435 24.1069 12.8614 16.0052C12.2349 11.2916 12.9254 3.12678 27.3778 0.0264034Z" fill="#8AB829"/>
<path d="M15.2607 8.07178C18.0088 3.84208 23.626 0.531278 30.4464 0.713652C37.2667 0.889013 43.5817 4.92932 46.2229 10.1691C40.3708 5.53957 34.839 4.64173 30.9946 4.29101C28.3319 4.0455 18.8275 4.73993 15.2607 8.07178Z" fill="#1D90D1"/>
<path d="M29.0652 5.80625C34.0915 5.27315 40.3067 6.68305 43.3325 9.53792C46.3938 12.4208 47.9672 15.437 46.5575 21.9534C46.0592 16.8259 43.4321 13.6133 41.695 11.5651C39.7229 9.2363 33.465 6.27622 29.0581 5.80625H29.0652Z" fill="#4FA149"/>
</svg>
