<svg width="119" height="185" viewBox="0 0 119 185" fill="none" xmlns="http://www.w3.org/2000/svg">
<g clip-path="url(#clip0_416_630)">
<path d="M58.09 128.22C88.64 129.32 108.35 112.68 107.87 92.5504C107.57 79.8304 93.71 70.3304 76.06 67.2204C57.68 63.9804 27.97 70.2204 16.74 47.6504C22.99 69.6204 40.04 71.9204 54.07 74.9604C66.1 77.5604 85.33 80.8704 87.77 96.7904C89.19 106.06 88.9 121.62 58.09 128.22Z" fill="white"/>
<path d="M82.36 112.39C76.17 120.7 63.5 127.2 48.11 126.85C32.73 126.5 16.02 118.34 12.53 108.27C23.16 118.15 37.94 119.17 46.87 119.82C52.88 120.26 74.31 118.93 82.36 112.39Z" fill="white"/>
<path d="M51.22 116.83C39.89 117.88 26.29 114.54 19.03 109.5C12.53 104.98 8.58004 97.9003 11.75 85.0903C12.87 95.1703 17.39 101.06 22.72 105.5C27.62 109.59 41.28 115.9 51.22 116.82V116.83Z" fill="white"/>
<path d="M62.13 0.0501528C35.9 -1.04985 16.34 15.5802 16.75 35.7002C17.01 48.4202 25.11 57.8702 41.62 61.0302C59.95 64.5402 94.79 58.8102 107.88 81.3801C100.61 59.4101 77.65 56.3302 63.61 53.2902C51.58 50.6902 36.1 47.3801 34.01 31.4602C32.79 22.1902 34.13 6.15015 62.13 0.0501528Z" fill="white"/>
<path d="M39.02 15.8602C44.33 7.55022 55.21 1.05022 68.42 1.40022C81.63 1.75022 94.83 8.85021 98.97 19.9802C91.56 11.7402 77.2 8.84022 69.48 8.43022C63.58 8.11022 45.92 9.32022 39.01 15.8602H39.02Z" fill="white"/>
<path d="M65.75 11.4203C75.48 10.3703 87.52 13.7103 93.38 18.7503C98.96 23.5503 102.35 33.3403 99.63 43.1603C98.97 33.0403 92.64 24.9103 90.21 22.7503C85.37 17.8603 74.27 12.3503 65.74 11.4303L65.75 11.4203Z" fill="white"/>
<path d="M0.46 183.62C0.03 183.41 0 183.28 0 182.45C0 180.92 0.12 179.69 0.15 179.2C0.18 178.86 0.24 178.71 0.4 178.71C0.58 178.71 0.61 178.8 0.61 179.05C0.61 179.33 0.61 179.76 0.7 180.18C1.16 182.45 3.18 183.31 5.24 183.31C8.19 183.31 9.63 181.19 9.63 179.23C9.63 177.11 8.74 175.89 6.1 173.71L4.72 172.57C1.47 169.9 0.73 168 0.73 165.91C0.73 162.63 3.18 160.39 7.08 160.39C8.28 160.39 9.17 160.51 9.93 160.7C10.51 160.82 10.76 160.85 11 160.85C11.24 160.85 11.31 160.91 11.31 161.06C11.31 161.21 11.19 162.23 11.19 164.31C11.19 164.8 11.13 165.02 10.98 165.02C10.8 165.02 10.77 164.87 10.73 164.62C10.7 164.25 10.52 163.42 10.33 163.09C10.14 162.76 9.32 161.46 6.49 161.46C4.37 161.46 2.72 162.78 2.72 165.02C2.72 166.77 3.52 167.87 6.46 170.17L7.32 170.85C10.94 173.7 11.8 175.6 11.8 178.06C11.8 179.32 11.31 181.65 9.19 183.15C7.87 184.07 6.21 184.44 4.56 184.44C3.12 184.44 1.71 184.23 0.45 183.61L0.46 183.62Z" fill="white"/>
<path d="M26.0799 174.97C25.9299 174.97 25.8299 175.06 25.7699 175.22L23.9299 180.65C23.6499 181.42 23.4999 182.15 23.4999 182.71C23.4999 183.32 24.0799 183.6 24.5999 183.6H24.8799C25.1899 183.6 25.2799 183.66 25.2799 183.78C25.2799 183.96 24.9999 184.03 24.7299 184.03C23.9899 184.03 22.7699 183.94 22.4299 183.94C22.0899 183.94 20.3999 184.03 18.9599 184.03C18.5599 184.03 18.3799 183.97 18.3799 183.78C18.3799 183.66 18.5299 183.6 18.8099 183.6C19.0199 183.6 19.2999 183.57 19.5499 183.54C20.9599 183.36 21.5799 182.19 22.1299 180.66L29.0899 161.61C29.4599 160.6 29.5799 160.41 29.7699 160.41C29.9599 160.41 30.0799 160.56 30.4499 161.51C30.9099 162.68 35.7299 175.35 37.5999 180.01C38.6999 182.74 39.5899 183.23 40.2399 183.42C40.6999 183.57 41.1899 183.6 41.4399 183.6C41.6199 183.6 41.7799 183.63 41.7799 183.78C41.7799 183.96 41.4999 184.03 41.1699 184.03C40.7099 184.03 38.4699 184.03 36.3499 183.97C35.7699 183.94 35.4299 183.94 35.4299 183.76C35.4299 183.64 35.5199 183.58 35.6399 183.55C35.8199 183.49 36.0099 183.21 35.8199 182.72L32.9699 175.17C32.9099 175.05 32.8499 174.99 32.6899 174.99H26.0899L26.0799 174.97ZM32.2799 173.86C32.4299 173.86 32.4299 173.77 32.3999 173.65L29.4899 165.37C29.3399 164.91 29.1799 164.91 29.0299 165.37L26.3299 173.65C26.2699 173.8 26.3299 173.86 26.4199 173.86H32.2799Z" fill="white"/>
<path d="M50.35 174.97C50.35 163.9 50.41 167.88 50.38 161.93C50.38 160.73 50.47 160.4 50.72 160.4C50.97 160.4 51.49 161.08 51.79 161.38C52.25 161.9 56.82 166.84 61.54 171.9C64.58 175.15 67.92 178.89 68.9 179.91L68.56 164.33C68.53 162.34 68.31 161.66 67.36 161.42C66.81 161.3 66.32 161.27 66.04 161.27C65.7 161.27 65.61 161.18 65.61 161.06C65.61 160.88 65.86 160.85 66.22 160.85C67.6 160.85 69.07 160.94 69.41 160.94C69.75 160.94 70.76 160.85 72.02 160.85C72.36 160.85 72.57 160.88 72.57 161.06C72.57 161.18 72.45 161.24 72.23 161.27C71.98 161.3 71.8 161.33 71.43 161.39C70.57 161.57 70.36 162.03 70.36 164.15L70.3 182.06C70.3 184.08 70.24 184.24 70.02 184.24C69.77 184.24 69.41 183.9 67.78 182.28C67.44 181.97 63.03 177.46 59.77 173.97C56.21 170.14 52.75 166.27 51.76 165.17L52.16 179.86C52.22 182.38 52.53 183.17 53.36 183.42C53.94 183.57 54.62 183.6 54.89 183.6C55.04 183.6 55.14 183.66 55.14 183.78C55.14 183.96 54.96 184.03 54.59 184.03C52.84 184.03 51.61 183.94 51.34 183.94C51.07 183.94 49.78 184.03 48.39 184.03C48.08 184.03 47.9 184 47.9 183.78C47.9 183.66 47.99 183.6 48.15 183.6C48.4 183.6 48.95 183.57 49.41 183.42C50.18 183.21 50.33 182.32 50.33 179.52V174.98L50.35 174.97Z" fill="white"/>
<path d="M86.49 171.68C87.44 170.76 91.61 166.37 93.48 164.44C95.32 162.54 95.44 162.23 95.44 161.86C95.44 161.61 95.29 161.37 95.04 161.28C94.83 161.19 94.76 161.13 94.76 161C94.76 160.87 94.94 160.82 95.22 160.82C96.11 160.82 96.02 160.91 97.06 160.91C98.01 160.91 99.82 160.82 100.31 160.82C100.74 160.82 100.83 160.91 100.83 161.03C100.83 161.15 100.77 161.21 100.49 161.24C99.91 161.3 99.35 161.42 98.92 161.61C98.15 161.92 97.57 162.29 95.73 164.06C93.03 166.67 89.53 170.13 88.74 171.02C90.67 173.14 96.26 178.81 97.7 180.16C100.22 182.52 101.29 183.2 102.76 183.47C103.04 183.53 103.34 183.56 103.65 183.56C103.9 183.56 104.08 183.62 104.08 183.77C104.08 183.92 103.96 183.98 103.62 183.98H101.35C98.68 183.98 97.97 183.64 96.53 182.51C94.69 181.07 89.17 175.15 86.47 171.93V175.09C86.47 178.03 86.47 180.46 86.62 181.75C86.71 182.64 86.9 183.31 87.82 183.44C88.25 183.5 88.86 183.56 89.05 183.56C89.33 183.56 89.42 183.68 89.42 183.77C89.42 183.92 89.3 183.98 88.96 183.98C87.27 183.98 85.34 183.89 85.19 183.89C85.04 183.89 83.23 183.98 82.31 183.98C81.97 183.98 81.82 183.95 81.82 183.77C81.82 183.68 81.88 183.56 82.16 183.56C82.34 183.56 82.68 183.53 82.96 183.47C83.57 183.35 83.76 182.64 83.88 181.75C84.03 180.46 84.03 178.04 84.03 175.09V169.69C84.03 164.9 84.03 164.05 83.97 163.06C83.91 162.02 83.6 161.5 82.93 161.34C82.59 161.25 82.04 161.22 81.83 161.22C81.58 161.22 81.49 161.16 81.49 161.04C81.49 160.86 81.64 160.79 81.98 160.79C82.99 160.79 85.05 160.88 85.2 160.88C85.35 160.88 87.29 160.79 88.21 160.79C88.55 160.79 88.7 160.85 88.7 161C88.7 161.12 88.64 161.18 88.36 161.21C88.02 161.24 87.99 161.24 87.68 161.27C86.85 161.36 86.61 161.98 86.54 163.05C86.48 164.03 86.48 164.89 86.48 169.68V171.64L86.49 171.68Z" fill="white"/>
<path d="M112.97 169.72C112.97 164.93 112.97 164.08 112.91 163.09C112.85 162.05 112.54 161.53 111.87 161.37C111.53 161.28 111.13 161.25 110.92 161.25C110.8 161.25 110.67 161.19 110.67 161.07C110.67 160.89 110.82 160.82 111.16 160.82C112.17 160.82 114.11 160.91 114.26 160.91C114.41 160.91 116.35 160.82 117.27 160.82C117.61 160.82 117.76 160.88 117.76 161.07C117.76 161.19 117.64 161.25 117.51 161.25C117.3 161.25 117.11 161.28 116.74 161.34C115.91 161.49 115.67 162.02 115.6 163.09C115.54 164.07 115.54 164.93 115.54 169.72V175.12C115.54 178.06 115.54 180.49 115.69 181.78C115.78 182.67 115.97 183.34 116.89 183.47C117.32 183.53 117.96 183.59 118.15 183.59C118.43 183.59 118.52 183.68 118.52 183.77C118.52 183.92 118.4 184.02 118.06 184.02C116.37 184.02 114.41 183.93 114.26 183.93C114.11 183.93 112.17 184.02 111.25 184.02C110.91 184.02 110.76 183.96 110.76 183.77C110.76 183.68 110.82 183.59 111.1 183.59C111.28 183.59 111.62 183.56 111.9 183.5C112.51 183.38 112.7 182.67 112.82 181.78C112.97 180.49 112.97 178.07 112.97 175.12V169.72Z" fill="white"/>
</g>
<defs>
<clipPath id="clip0_416_630">
<rect width="118.52" height="184.45" fill="white"/>
</clipPath>
</defs>
</svg>
