<svg width="54" height="108" viewBox="0 0 54 108" fill="none" xmlns="http://www.w3.org/2000/svg">
<path d="M0.699111 106.927C0.514749 106.822 0.5 106.765 0.5 106.371C0.5 105.638 0.551621 105.05 0.56637 104.816C0.581119 104.655 0.603243 104.582 0.676987 104.582C0.758106 104.582 0.772855 104.623 0.772855 104.743C0.772855 104.872 0.772855 105.082 0.809728 105.283C1.00884 106.371 1.89377 106.773 2.79346 106.773C4.07662 106.773 4.71082 105.766 4.71082 104.824C4.71082 103.817 4.31997 103.229 3.16956 102.19L2.56485 101.65C1.14158 100.377 0.824477 99.4667 0.824477 98.4678C0.824477 96.9049 1.89377 95.8335 3.59728 95.8335C4.12086 95.8335 4.51171 95.8899 4.84356 95.9785C5.09429 96.0349 5.20491 96.051 5.31553 96.051C5.42614 96.051 5.44827 96.0832 5.44827 96.1557C5.44827 96.2282 5.39665 96.7116 5.39665 97.7105C5.39665 97.9442 5.36715 98.0489 5.30078 98.0489C5.21966 98.0489 5.20491 97.9764 5.19754 97.8555C5.18279 97.6783 5.10167 97.2836 5.02055 97.1224C4.93943 96.9613 4.57808 96.3491 3.34654 96.3491C2.42474 96.3491 1.69466 96.9774 1.69466 98.0489C1.69466 98.8867 2.04126 99.4103 3.3318 100.506L3.70789 100.828C5.28603 102.19 5.66213 103.1 5.66213 104.268C5.66213 104.872 5.44827 105.984 4.52646 106.701C3.95125 107.136 3.22855 107.313 2.50586 107.313C1.87903 107.313 1.25957 107.208 0.706485 106.918L0.699111 106.927Z" fill="white"/>
<path d="M12.3654 102.794C12.299 102.794 12.2622 102.834 12.2327 102.915L11.4288 105.509C11.3108 105.871 11.2445 106.226 11.2445 106.492C11.2445 106.782 11.5026 106.918 11.7238 106.918H11.8418C11.9745 106.918 12.0188 106.951 12.0188 107.007C12.0188 107.096 11.9008 107.12 11.7754 107.12C11.451 107.12 10.92 107.08 10.7725 107.08C10.625 107.08 9.88757 107.12 9.26074 107.12C9.08375 107.12 9.01001 107.088 9.01001 107.007C9.01001 106.951 9.07638 106.918 9.19437 106.918C9.29024 106.918 9.40823 106.902 9.51885 106.886C10.1383 106.798 10.4038 106.242 10.6471 105.509L13.6854 96.4135C13.8477 95.9302 13.8993 95.8416 13.9804 95.8416C14.0615 95.8416 14.1131 95.9141 14.2754 96.3652C14.4745 96.9211 16.5836 102.971 17.3948 105.195C17.8741 106.5 18.265 106.733 18.5452 106.822C18.7443 106.894 18.9582 106.91 19.0688 106.91C19.1499 106.91 19.2163 106.927 19.2163 106.999C19.2163 107.088 19.0983 107.112 18.9508 107.112C18.7517 107.112 17.7709 107.112 16.8491 107.08C16.591 107.063 16.4508 107.063 16.4508 106.975C16.4508 106.918 16.4877 106.886 16.5467 106.87C16.6278 106.838 16.709 106.709 16.6278 106.475L15.3816 102.874C15.3521 102.818 15.3299 102.786 15.2636 102.786H12.3801L12.3654 102.794ZM15.0718 102.27C15.1382 102.27 15.1382 102.23 15.1234 102.165L13.8477 98.21C13.7813 97.9925 13.7149 97.9925 13.6486 98.21L12.4686 102.165C12.4391 102.238 12.4686 102.27 12.5055 102.27H15.0644H15.0718Z" fill="white"/>
<path d="M23.2353 102.794C23.2353 97.5091 23.2648 99.4103 23.2501 96.5746C23.2501 96.0027 23.2869 95.8416 23.3976 95.8416C23.5082 95.8416 23.7294 96.1638 23.8695 96.3088C24.0686 96.5585 26.0671 98.9189 28.132 101.328C29.4594 102.882 30.9195 104.663 31.3472 105.146L31.1997 97.7105C31.185 96.7599 31.0891 96.4377 30.6762 96.3169C30.4328 96.2605 30.2189 96.2444 30.1009 96.2444C29.9535 96.2444 29.9166 96.2041 29.9166 96.1396C29.9166 96.051 30.0272 96.0349 30.1821 96.0349C30.7868 96.0349 31.4283 96.0752 31.5758 96.0752C31.7233 96.0752 32.1658 96.0349 32.7115 96.0349C32.859 96.0349 32.9549 96.051 32.9549 96.1396C32.9549 96.196 32.9032 96.2282 32.8074 96.2444C32.7041 96.2605 32.623 96.2766 32.4608 96.3007C32.0847 96.3894 31.9888 96.6069 31.9888 97.6219L31.9593 106.169C31.9593 107.136 31.9298 107.209 31.8413 107.209C31.7307 107.209 31.5758 107.047 30.8605 106.274C30.713 106.129 28.7809 103.978 27.365 102.302C25.809 100.474 24.2972 98.6289 23.8695 98.1053L24.0465 105.122C24.076 106.322 24.2087 106.701 24.5701 106.822C24.8208 106.894 25.1232 106.91 25.2412 106.91C25.3075 106.91 25.3518 106.943 25.3518 106.999C25.3518 107.088 25.2707 107.112 25.1084 107.112C24.3415 107.112 23.8105 107.072 23.6852 107.072C23.5598 107.072 22.9993 107.112 22.402 107.112C22.2693 107.112 22.1881 107.096 22.1881 106.999C22.1881 106.943 22.225 106.91 22.2988 106.91C22.4094 106.91 22.6454 106.894 22.8518 106.822C23.1837 106.717 23.2501 106.298 23.2501 104.961V102.794H23.2353Z" fill="white"/>
<path d="M39.4519 101.231C39.8649 100.796 41.6938 98.7014 42.5049 97.775C43.3088 96.8647 43.3604 96.7197 43.3604 96.5424C43.3604 96.4297 43.294 96.3088 43.1834 96.2605C43.0875 96.2202 43.0654 96.188 43.0654 96.1316C43.0654 96.0752 43.1465 96.043 43.2645 96.043C43.6554 96.043 43.6111 96.0833 44.0683 96.0833C44.4813 96.0833 45.2777 96.043 45.4916 96.043C45.676 96.043 45.7202 96.0833 45.7202 96.1477C45.7202 96.2121 45.6907 96.2363 45.5727 96.2524C45.3146 96.2846 45.0786 96.341 44.8869 96.4297C44.5477 96.5747 44.2969 96.7519 43.4931 97.5978C42.3132 98.8384 40.7867 100.498 40.4401 100.917C41.2882 101.924 43.7217 104.639 44.3559 105.283C45.4547 106.411 45.9267 106.733 46.5683 106.862C46.6863 106.894 46.819 106.902 46.9591 106.902C47.0697 106.902 47.1435 106.935 47.1435 107.007C47.1435 107.08 47.0919 107.112 46.9444 107.112H45.9562C44.791 107.112 44.4813 106.951 43.8545 106.411C43.0507 105.718 40.6392 102.899 39.4593 101.36V102.866C39.4593 104.268 39.4593 105.428 39.5257 106.04C39.5625 106.467 39.6437 106.79 40.0492 106.846C40.2336 106.878 40.5065 106.902 40.5876 106.902C40.7056 106.902 40.7498 106.959 40.7498 107.007C40.7498 107.08 40.6982 107.112 40.5507 107.112C39.8133 107.112 38.9726 107.072 38.8988 107.072C38.8251 107.072 38.0434 107.112 37.6378 107.112C37.4903 107.112 37.4239 107.096 37.4239 107.007C37.4239 106.967 37.4534 106.902 37.5714 106.902C37.6525 106.902 37.8 106.886 37.918 106.862C38.1835 106.806 38.2646 106.467 38.3162 106.04C38.3826 105.428 38.3826 104.268 38.3826 102.866V100.288C38.3826 98.0086 38.3826 97.5978 38.3531 97.1225C38.3236 96.623 38.1909 96.3733 37.8959 96.3008C37.7484 96.2605 37.5051 96.2444 37.4166 96.2444C37.3059 96.2444 37.2691 96.2121 37.2691 96.1558C37.2691 96.0671 37.3354 96.043 37.4829 96.043C37.9254 96.043 38.8251 96.0833 38.8915 96.0833C38.9578 96.0833 39.8059 96.043 40.2041 96.043C40.3516 96.043 40.418 96.0752 40.418 96.1477C40.418 96.2041 40.3885 96.2363 40.2705 96.2524C40.123 96.2685 40.1082 96.2685 39.9755 96.2846C39.6142 96.3249 39.5035 96.623 39.4814 97.1305C39.4519 97.5978 39.4519 98.0086 39.4519 100.297V101.231Z" fill="white"/>
<path d="M51.0224 100.297C51.0224 98.0167 51.0224 97.6058 50.9929 97.1305C50.9634 96.6311 50.8307 96.3813 50.5357 96.3088C50.3882 96.2685 50.2112 96.2524 50.1227 96.2524C50.0711 96.2524 50.0121 96.2202 50.0121 96.1638C50.0121 96.0752 50.0785 96.051 50.226 96.051C50.6684 96.051 51.5091 96.0913 51.5755 96.0913C51.6419 96.0913 52.4899 96.051 52.8882 96.051C53.0356 96.051 53.102 96.0832 53.102 96.1638C53.102 96.2202 53.0504 96.2524 52.9914 96.2524C52.8955 96.2524 52.8144 96.2685 52.6522 96.2927C52.2908 96.3652 52.1802 96.6149 52.1581 97.1305C52.1286 97.5978 52.1286 98.0086 52.1286 100.297V102.874C52.1286 104.276 52.1286 105.436 52.195 106.048C52.2318 106.475 52.3129 106.798 52.7185 106.854C52.9029 106.886 53.1905 106.91 53.2716 106.91C53.3896 106.91 53.4339 106.951 53.4339 106.999C53.4339 107.072 53.3822 107.112 53.2348 107.112C52.4973 107.112 51.6419 107.072 51.5755 107.072C51.5091 107.072 50.6611 107.112 50.2629 107.112C50.1154 107.112 50.049 107.08 50.049 106.999C50.049 106.959 50.0785 106.91 50.1965 106.91C50.2776 106.91 50.4251 106.894 50.5431 106.87C50.8086 106.814 50.8897 106.475 50.9413 106.048C51.0077 105.436 51.0077 104.276 51.0077 102.874V100.297H51.0224Z" fill="white"/>
<path d="M26.8709 75.3551C43.2053 75.9996 53.7508 66.276 53.4927 54.5144C53.3305 47.0868 45.9191 41.5362 36.4798 39.7156C26.6497 37.8224 10.7577 41.4718 4.7475 28.2761C8.08813 41.1173 17.2103 42.4546 24.7176 44.235C31.1481 45.7575 41.4355 47.691 42.7407 56.9956C43.5003 62.4092 43.3455 71.5044 26.8635 75.3632L26.8709 75.3551Z" fill="white"/>
<path d="M39.85 66.107C36.5389 70.9647 29.7618 74.7591 21.5319 74.5577C13.3019 74.3563 5.68412 69.716 2.49835 63.6982C9.55572 69.0152 16.2296 70.0463 20.8682 70.4491C24.0834 70.7311 35.5433 69.9336 39.85 66.107Z" fill="white"/>
<path d="M23.1911 68.7089C17.1293 69.3211 9.62945 67.7019 5.97909 64.4231C2.28448 61.1121 0.389242 57.648 2.08537 50.1641C2.6827 56.053 5.85372 59.7426 7.94807 62.0949C10.33 64.7695 17.8741 68.1691 23.1911 68.7089Z" fill="white"/>
<path d="M29.0242 0.475148C14.9979 -0.169328 4.54095 9.54615 4.75481 21.3078C4.89492 28.7354 9.22374 34.2618 18.0583 36.1066C27.859 38.1528 46.5017 34.8096 53.5 47.9972C49.6063 35.156 37.3278 33.3595 29.8206 31.5872C23.3901 30.0647 15.1086 28.1312 13.9876 18.8266C13.3387 13.413 14.054 4.03588 29.0242 0.475148Z" fill="white"/>
<path d="M16.4729 9.71505C19.3194 4.85731 25.1379 1.0549 32.2026 1.26436C39.2674 1.46576 45.8085 6.10599 48.5445 12.1238C42.4826 6.80685 36.7527 5.77569 32.7705 5.37289C30.0124 5.09094 20.1675 5.88847 16.4729 9.71505Z" fill="white"/>
<path d="M30.772 7.11334C35.9784 6.50109 42.4163 8.12034 45.5504 11.3991C48.7214 14.7101 50.3512 18.1742 48.8911 25.6581C48.3748 19.7692 45.6537 16.0796 43.8543 13.7273C41.8116 11.0527 35.3294 7.65309 30.7646 7.11334H30.772Z" fill="white"/>
</svg>
