<svg width="119" height="185" viewBox="0 0 119 185" fill="none" xmlns="http://www.w3.org/2000/svg">
<g clip-path="url(#clip0_416_270)">
<path d="M58.09 128.72C88.64 129.82 108.35 113.18 107.87 93.0504C107.57 80.3304 93.71 70.8304 76.06 67.7204C57.68 64.4804 27.97 70.7204 16.74 48.1504C22.99 70.1204 40.04 72.4204 54.07 75.4604C66.1 78.0604 85.33 81.3704 87.77 97.2904C89.19 106.56 88.9 122.12 58.09 128.72Z" fill="#4FA149"/>
<path d="M82.36 112.89C76.17 121.2 63.5 127.7 48.11 127.35C32.73 127 16.02 118.84 12.53 108.77C23.16 118.65 37.94 119.67 46.87 120.32C52.88 120.76 74.31 119.43 82.36 112.89Z" fill="#1D90D1"/>
<path d="M51.22 117.33C39.89 118.38 26.29 115.04 19.03 110C12.53 105.48 8.58004 98.4003 11.75 85.5903C12.87 95.6703 17.39 101.56 22.72 106C27.62 110.09 41.28 116.4 51.22 117.32V117.33Z" fill="#8AB829"/>
<path d="M62.13 0.550153C35.9 -0.549847 16.34 16.0802 16.75 36.2002C17.01 48.9202 25.11 58.3702 41.62 61.5302C59.95 65.0402 94.79 59.3102 107.88 81.8801C100.61 59.9101 77.65 56.8302 63.61 53.7902C51.58 51.1902 36.1 47.8801 34.01 31.9602C32.79 22.6902 34.13 6.65015 62.13 0.550153Z" fill="#8AB829"/>
<path d="M39.02 16.3602C44.33 8.05022 55.21 1.55022 68.42 1.90022C81.63 2.25022 94.83 9.35021 98.97 20.4802C91.56 12.2402 77.2 9.34022 69.48 8.93022C63.58 8.61022 45.92 9.82022 39.01 16.3602H39.02Z" fill="#4FA149"/>
<path d="M65.75 11.9203C75.48 10.8703 87.52 14.2103 93.38 19.2503C98.96 24.0503 102.35 33.8403 99.63 43.6603C98.97 33.5403 92.64 25.4103 90.21 23.2503C85.37 18.3603 74.27 12.8503 65.74 11.9303L65.75 11.9203Z" fill="#1D90D1"/>
<path d="M0.46 184.12C0.03 183.91 0 183.78 0 182.95C0 181.42 0.12 180.19 0.15 179.7C0.18 179.36 0.24 179.21 0.4 179.21C0.58 179.21 0.61 179.3 0.61 179.55C0.61 179.83 0.61 180.26 0.7 180.68C1.16 182.95 3.18 183.81 5.24 183.81C8.19 183.81 9.63 181.69 9.63 179.73C9.63 177.61 8.74 176.39 6.1 174.21L4.72 173.07C1.47 170.4 0.73 168.5 0.73 166.41C0.73 163.13 3.18 160.89 7.08 160.89C8.28 160.89 9.17 161.01 9.93 161.2C10.51 161.32 10.76 161.35 11 161.35C11.24 161.35 11.31 161.41 11.31 161.56C11.31 161.71 11.19 162.73 11.19 164.81C11.19 165.3 11.13 165.52 10.98 165.52C10.8 165.52 10.77 165.37 10.73 165.12C10.7 164.75 10.52 163.92 10.33 163.59C10.14 163.26 9.32 161.96 6.49 161.96C4.37 161.96 2.72 163.28 2.72 165.52C2.72 167.27 3.52 168.37 6.46 170.67L7.32 171.35C10.94 174.2 11.8 176.1 11.8 178.56C11.8 179.82 11.31 182.15 9.19 183.65C7.87 184.57 6.21 184.94 4.56 184.94C3.12 184.94 1.71 184.73 0.45 184.11L0.46 184.12Z" fill="#231815"/>
<path d="M26.0799 175.47C25.9299 175.47 25.8299 175.56 25.7699 175.72L23.9299 181.15C23.6499 181.92 23.4999 182.65 23.4999 183.21C23.4999 183.82 24.0799 184.1 24.5999 184.1H24.8799C25.1899 184.1 25.2799 184.16 25.2799 184.28C25.2799 184.46 24.9999 184.53 24.7299 184.53C23.9899 184.53 22.7699 184.44 22.4299 184.44C22.0899 184.44 20.3999 184.53 18.9599 184.53C18.5599 184.53 18.3799 184.47 18.3799 184.28C18.3799 184.16 18.5299 184.1 18.8099 184.1C19.0199 184.1 19.2999 184.07 19.5499 184.04C20.9599 183.86 21.5799 182.69 22.1299 181.16L29.0899 162.11C29.4599 161.1 29.5799 160.91 29.7699 160.91C29.9599 160.91 30.0799 161.06 30.4499 162.01C30.9099 163.18 35.7299 175.85 37.5999 180.51C38.6999 183.24 39.5899 183.73 40.2399 183.92C40.6999 184.07 41.1899 184.1 41.4399 184.1C41.6199 184.1 41.7799 184.13 41.7799 184.28C41.7799 184.46 41.4999 184.53 41.1699 184.53C40.7099 184.53 38.4699 184.53 36.3499 184.47C35.7699 184.44 35.4299 184.44 35.4299 184.26C35.4299 184.14 35.5199 184.08 35.6399 184.05C35.8199 183.99 36.0099 183.71 35.8199 183.22L32.9699 175.67C32.9099 175.55 32.8499 175.49 32.6899 175.49H26.0899L26.0799 175.47ZM32.2799 174.36C32.4299 174.36 32.4299 174.27 32.3999 174.15L29.4899 165.87C29.3399 165.41 29.1799 165.41 29.0299 165.87L26.3299 174.15C26.2699 174.3 26.3299 174.36 26.4199 174.36H32.2799Z" fill="#231815"/>
<path d="M50.3499 175.47C50.3499 164.4 50.4099 168.38 50.3799 162.43C50.3799 161.23 50.4699 160.9 50.7199 160.9C50.9699 160.9 51.4899 161.58 51.7899 161.88C52.2499 162.4 56.8199 167.34 61.5399 172.4C64.5799 175.65 67.9199 179.39 68.8999 180.41L68.5599 164.83C68.5299 162.84 68.3099 162.16 67.3599 161.92C66.8099 161.8 66.3199 161.77 66.0399 161.77C65.6999 161.77 65.6099 161.68 65.6099 161.56C65.6099 161.38 65.8599 161.35 66.2199 161.35C67.5999 161.35 69.0699 161.44 69.4099 161.44C69.7499 161.44 70.7599 161.35 72.0199 161.35C72.3599 161.35 72.5699 161.38 72.5699 161.56C72.5699 161.68 72.4499 161.74 72.2299 161.77C71.9799 161.8 71.7999 161.83 71.4299 161.89C70.5699 162.07 70.3599 162.53 70.3599 164.65L70.2999 182.56C70.2999 184.58 70.2399 184.74 70.0199 184.74C69.7699 184.74 69.4099 184.4 67.7799 182.78C67.4399 182.47 63.0299 177.96 59.7699 174.47C56.2099 170.64 52.7499 166.77 51.7599 165.67L52.1599 180.36C52.2199 182.88 52.5299 183.67 53.3599 183.92C53.9399 184.07 54.6199 184.1 54.8899 184.1C55.0399 184.1 55.1399 184.16 55.1399 184.28C55.1399 184.46 54.9599 184.53 54.5899 184.53C52.8399 184.53 51.6099 184.44 51.3399 184.44C51.0699 184.44 49.7799 184.53 48.3899 184.53C48.0799 184.53 47.8999 184.5 47.8999 184.28C47.8999 184.16 47.9899 184.1 48.1499 184.1C48.3999 184.1 48.9499 184.07 49.4099 183.92C50.1799 183.71 50.3299 182.82 50.3299 180.02V175.48L50.3499 175.47Z" fill="#231815"/>
<path d="M86.49 172.18C87.44 171.26 91.61 166.87 93.48 164.94C95.32 163.04 95.44 162.73 95.44 162.36C95.44 162.11 95.29 161.87 95.04 161.78C94.83 161.69 94.76 161.63 94.76 161.5C94.76 161.37 94.94 161.32 95.22 161.32C96.11 161.32 96.02 161.41 97.06 161.41C98.01 161.41 99.82 161.32 100.31 161.32C100.74 161.32 100.83 161.41 100.83 161.53C100.83 161.65 100.77 161.71 100.49 161.74C99.91 161.8 99.35 161.92 98.92 162.11C98.15 162.42 97.57 162.79 95.73 164.56C93.03 167.17 89.53 170.63 88.74 171.52C90.67 173.64 96.26 179.31 97.7 180.66C100.22 183.02 101.29 183.7 102.76 183.97C103.04 184.03 103.34 184.06 103.65 184.06C103.9 184.06 104.08 184.12 104.08 184.27C104.08 184.42 103.96 184.48 103.62 184.48H101.35C98.68 184.48 97.97 184.14 96.53 183.01C94.69 181.57 89.17 175.65 86.47 172.43V175.59C86.47 178.53 86.47 180.96 86.62 182.25C86.71 183.14 86.9 183.81 87.82 183.94C88.25 184 88.86 184.06 89.05 184.06C89.33 184.06 89.42 184.18 89.42 184.27C89.42 184.42 89.3 184.48 88.96 184.48C87.27 184.48 85.34 184.39 85.19 184.39C85.04 184.39 83.23 184.48 82.31 184.48C81.97 184.48 81.82 184.45 81.82 184.27C81.82 184.18 81.88 184.06 82.16 184.06C82.34 184.06 82.68 184.03 82.96 183.97C83.57 183.85 83.76 183.14 83.88 182.25C84.03 180.96 84.03 178.54 84.03 175.59V170.19C84.03 165.4 84.03 164.55 83.97 163.56C83.91 162.52 83.6 162 82.93 161.84C82.59 161.75 82.04 161.72 81.83 161.72C81.58 161.72 81.49 161.66 81.49 161.54C81.49 161.36 81.64 161.29 81.98 161.29C82.99 161.29 85.05 161.38 85.2 161.38C85.35 161.38 87.29 161.29 88.21 161.29C88.55 161.29 88.7 161.35 88.7 161.5C88.7 161.62 88.64 161.68 88.36 161.71C88.02 161.74 87.99 161.74 87.68 161.77C86.85 161.86 86.61 162.48 86.54 163.55C86.48 164.53 86.48 165.39 86.48 170.18V172.14L86.49 172.18Z" fill="#231815"/>
<path d="M112.97 170.22C112.97 165.43 112.97 164.58 112.91 163.59C112.85 162.55 112.54 162.03 111.87 161.87C111.53 161.78 111.13 161.75 110.92 161.75C110.8 161.75 110.67 161.69 110.67 161.57C110.67 161.39 110.82 161.32 111.16 161.32C112.17 161.32 114.11 161.41 114.26 161.41C114.41 161.41 116.35 161.32 117.27 161.32C117.61 161.32 117.76 161.38 117.76 161.57C117.76 161.69 117.64 161.75 117.51 161.75C117.3 161.75 117.11 161.78 116.74 161.84C115.91 161.99 115.67 162.52 115.6 163.59C115.54 164.57 115.54 165.43 115.54 170.22V175.62C115.54 178.56 115.54 180.99 115.69 182.28C115.78 183.17 115.97 183.84 116.89 183.97C117.32 184.03 117.96 184.09 118.15 184.09C118.43 184.09 118.52 184.18 118.52 184.27C118.52 184.42 118.4 184.52 118.06 184.52C116.37 184.52 114.41 184.43 114.26 184.43C114.11 184.43 112.17 184.52 111.25 184.52C110.91 184.52 110.76 184.46 110.76 184.27C110.76 184.18 110.82 184.09 111.1 184.09C111.28 184.09 111.62 184.06 111.9 184C112.51 183.88 112.7 183.17 112.82 182.28C112.97 180.99 112.97 178.57 112.97 175.62V170.22Z" fill="#231815"/>
</g>
<defs>
<clipPath id="clip0_416_270">
<rect width="118.52" height="184.45" fill="white" transform="translate(0 0.5)"/>
</clipPath>
</defs>
</svg>
