<svg width="22" height="23" viewBox="0 0 22 23" fill="none" xmlns="http://www.w3.org/2000/svg">
<path d="M14.6668 11.5071C14.6704 9.39029 13.0316 7.67072 11.0073 7.66704C8.98257 7.66291 7.33746 9.37537 7.33351 11.4925C7.3296 13.6097 8.96834 15.3289 10.9934 15.333C13.0178 15.3371 14.6629 13.6242 14.6668 11.5071ZM16.648 11.5112C16.642 14.7726 14.1083 17.4106 10.9895 17.4043C7.87028 17.398 5.34551 14.7499 5.35157 11.4885C5.35763 8.22816 7.89163 5.58859 11.0112 5.59497C14.1301 5.6013 16.6541 8.25048 16.648 11.5112ZM6.45996 5.35275C6.45854 6.11436 5.86625 6.73104 5.13772 6.72956C4.40892 6.72803 3.81905 6.10915 3.82012 5.34754C3.82154 4.58593 4.41387 3.96889 5.1427 3.97041C5.87154 3.97189 6.46137 4.59114 6.45996 5.35275ZM15.4274 20.8688C16.4998 20.82 17.0821 20.6337 17.4702 20.4776C17.9842 20.2697 18.3509 20.0204 18.7369 19.6199C19.1222 19.2178 19.3613 18.8355 19.562 18.2993C19.7127 17.8935 19.8942 17.2854 19.9444 16.1643C19.999 14.9522 20.0114 14.5885 20.0167 11.5179C20.0225 8.44801 20.0118 8.08432 19.9611 6.87111C19.9152 5.75071 19.7359 5.14108 19.5869 4.7357C19.3881 4.19767 19.1503 3.81498 18.7665 3.41149C18.382 3.00796 18.0163 2.75869 17.5031 2.5489C17.1153 2.39051 16.5337 2.20233 15.4616 2.1491C14.3015 2.09169 13.954 2.07942 11.0176 2.07345C8.08057 2.06748 7.73273 2.0783 6.57223 2.13158C5.50059 2.18036 4.9175 2.36594 4.53005 2.5228C4.0158 2.7307 3.64906 2.97854 3.26342 3.38054C2.87782 3.78259 2.63865 4.16412 2.43799 4.70183C2.28657 5.10608 2.10653 5.71491 2.05591 6.83535C2.00069 8.04815 1.98819 8.41184 1.98286 11.4817C1.97719 14.5524 1.98789 14.916 2.03881 16.1285C2.08551 17.2496 2.26336 17.8589 2.41302 18.265C2.61193 18.802 2.84963 19.1854 3.23386 19.5889C3.61804 19.9909 3.98371 20.2417 4.49727 20.4515C4.88437 20.6094 5.46669 20.798 6.53803 20.8513C7.6981 20.9083 8.04563 20.9213 10.9831 20.9269C13.9195 20.9329 14.2669 20.9213 15.4274 20.8688ZM15.5557 0.0796353C16.7261 0.137405 17.5255 0.333354 18.2241 0.619552C18.9472 0.914285 19.5602 1.30924 20.17 1.94938C20.7805 2.58987 21.1555 3.23185 21.4352 3.98861C21.7061 4.72079 21.8896 5.55692 21.9413 6.78131C21.9926 8.00795 22.0044 8.39918 21.9987 11.522C21.993 14.6444 21.9798 15.0364 21.9239 16.2634C21.8679 17.4867 21.6811 18.322 21.4074 19.0527C21.1252 19.8087 20.7477 20.4493 20.1351 21.0871C19.5228 21.725 18.9083 22.1167 18.1841 22.4096C17.4845 22.6923 16.6844 22.885 15.5136 22.9386C14.3404 22.9926 13.9658 23.0045 10.9795 22.9986C7.99179 22.9926 7.61719 22.9789 6.44393 22.9207C5.2735 22.8622 4.47484 22.6663 3.77556 22.3808C3.05244 22.085 2.43945 21.6911 1.82959 21.0506C1.21982 20.4104 0.844875 19.7681 0.565105 19.011C0.29423 18.2796 0.10998 17.443 0.0590611 16.2198C0.00771332 14.9924 -0.00444603 14.6004 0.00131226 11.478C0.00702667 8.3552 0.0205193 7.96397 0.0761204 6.73774C0.131721 5.51335 0.319195 4.67834 0.592562 3.94728C0.875168 3.19129 1.25222 2.5511 1.86452 1.91285C2.47683 1.27532 3.09129 0.88257 3.81548 0.590847C4.51544 0.307659 5.31522 0.114674 6.48599 0.0617564C7.6593 0.00735597 8.03386 -0.00454834 11.0212 0.00138135C14.0079 0.00735597 14.3824 0.0207427 15.5557 0.0796353Z" fill="#333333"/>
</svg>
