<svg width="390" height="281" viewBox="0 0 390 281" fill="none" xmlns="http://www.w3.org/2000/svg">
<mask id="mask0_355_127" style="mask-type:alpha" maskUnits="userSpaceOnUse" x="0" y="0" width="390" height="281">
<rect width="390" height="281" fill="#D9D9D9"/>
</mask>
<g mask="url(#mask0_355_127)">
<path d="M317.495 50.8071C273.286 123.514 131.526 232.758 9.49442 280.62H-252.836C-113.633 255.045 223.962 132.283 317.495 50.8071Z" fill="#1D90D1"/>
<path d="M460.352 -156.719C468.025 -25.9194 361.704 195.49 270.729 280.62H80.0095C216.655 228.373 431.582 3.3096 460.352 -156.719Z" fill="#4FA149"/>
<path d="M488.119 -317.113C521.181 -153.983 447.199 134.475 333.936 280.62H605.401C643.033 103.419 658.744 -66.1091 621.842 -259.021C584.941 -451.932 416.143 -601 171.35 -601C318.591 -575.059 454.871 -481.161 488.119 -317.113Z" fill="#8AB829"/>
</g>
</svg>
