<svg width="36" height="47" viewBox="0 0 36 47" fill="none" xmlns="http://www.w3.org/2000/svg">
<path d="M17.5965 46.481C28.8342 46.8809 36.0892 40.8476 35.9116 33.5496C35.8 28.9408 30.7012 25.4968 24.2072 24.3671C17.4443 23.1924 6.51107 25.4568 2.37622 17.269C4.67449 25.2369 10.9503 26.0666 16.1151 27.1713C20.5391 28.1161 27.6166 29.3157 28.5146 35.0891C29.0371 38.4482 28.9306 44.0917 17.5915 46.486L17.5965 46.481Z" fill="#4FA149"/>
<path d="M26.526 40.7426C24.2481 43.7568 19.5856 46.1112 13.9236 45.9862C8.26168 45.8612 3.02083 42.982 0.829102 39.248C5.68438 42.5471 10.2758 43.187 13.467 43.4369C15.679 43.6119 23.5632 43.117 26.526 40.7426Z" fill="#1D90D1"/>
<path d="M15.0651 42.3574C10.8948 42.7373 5.73508 41.7326 3.22373 39.6982C0.68194 37.6437 -0.621932 35.4943 0.544958 30.8506C0.955906 34.5046 3.13748 36.794 4.57834 38.2536C6.21706 39.9131 11.4072 42.0225 15.0651 42.3574Z" fill="#8AB829"/>
<path d="M19.0783 0.0188156C9.42861 -0.381075 2.23448 5.64727 2.38161 12.9453C2.47801 17.554 5.45611 20.9831 11.5341 22.1277C18.2767 23.3974 31.1023 21.323 35.917 29.5057C33.2382 21.5379 24.791 20.4232 19.6262 19.3235C15.2022 18.3788 9.50471 17.1791 8.73355 11.4057C8.28709 8.04661 8.77921 2.22821 19.0783 0.0188156Z" fill="#8AB829"/>
<path d="M10.4434 5.7521C12.4017 2.73793 16.4046 0.378576 21.265 0.50854C26.1253 0.633506 30.6255 3.51271 32.5077 7.24669C28.3374 3.9476 24.3953 3.30777 21.6556 3.05784C19.7582 2.88289 12.9852 3.37775 10.4434 5.7521Z" fill="#1D90D1"/>
<path d="M20.2807 4.13771C23.8626 3.75781 28.2917 4.76254 30.4479 6.79698C32.6294 8.85141 33.7507 11.0008 32.7461 15.6445C32.391 11.9905 30.5189 9.70118 29.281 8.24158C27.8756 6.58204 23.4161 4.47262 20.2756 4.13771H20.2807Z" fill="#4FA149"/>
<path d="M17.4828 46.481C28.7204 46.8809 35.9754 40.8476 35.7979 33.5496C35.6862 28.9408 30.5874 25.4968 24.0934 24.3671C17.3306 23.1924 6.3973 25.4568 2.26245 17.269C4.56072 25.2369 10.8366 26.0666 16.0013 27.1713C20.4253 28.1161 27.5028 29.3157 28.4008 35.0891C28.9233 38.4482 28.8168 44.0917 17.4777 46.486L17.4828 46.481Z" fill="#4FA149"/>
<path d="M26.4123 40.7426C24.1343 43.7568 19.4718 46.1112 13.8099 45.9862C8.14791 45.8612 2.90706 42.982 0.715332 39.248C5.57061 42.5471 10.1621 43.187 13.3533 43.4369C15.5653 43.6119 23.4494 43.117 26.4123 40.7426Z" fill="#1D90D1"/>
<path d="M14.9514 42.3574C10.781 42.7373 5.62131 41.7326 3.10996 39.6982C0.568171 37.6437 -0.735702 35.4943 0.431188 30.8506C0.842136 34.5046 3.02371 36.794 4.46457 38.2536C6.10329 39.9131 11.2934 42.0225 14.9514 42.3574Z" fill="#8AB829"/>
<path d="M18.9643 0.0188156C9.3146 -0.381075 2.12047 5.64727 2.2676 12.9453C2.36399 17.554 5.3421 20.9831 11.4201 22.1277C18.1627 23.3974 30.9883 21.323 35.803 29.5057C33.1242 21.5379 24.677 20.4232 19.5122 19.3235C15.0882 18.3788 9.3907 17.1791 8.61954 11.4057C8.17308 8.04661 8.6652 2.22821 18.9643 0.0188156Z" fill="#8AB829"/>
<path d="M10.3293 5.7521C12.2877 2.73793 16.2906 0.378576 21.151 0.50854C26.0113 0.633506 30.5115 3.51271 32.3937 7.24669C28.2234 3.9476 24.2813 3.30777 21.5416 3.05784C19.6442 2.88289 12.8711 3.37775 10.3293 5.7521Z" fill="#1D90D1"/>
<path d="M20.1669 4.13771C23.7488 3.75781 28.1779 4.76254 30.3341 6.79698C32.5157 8.85141 33.6369 11.0008 32.6324 15.6445C32.2772 11.9905 30.4051 9.70118 29.1672 8.24158C27.7619 6.58204 23.3023 4.47262 20.1619 4.13771H20.1669Z" fill="#4FA149"/>
</svg>
