<svg width="43" height="78" viewBox="0 0 43 78" fill="none" xmlns="http://www.w3.org/2000/svg">
<path d="M0.161131 77.7181C0.0119356 77.6416 0 77.6005 0 77.3124C0 76.7773 0.0417746 76.3481 0.0537102 76.1776C0.0656458 76.06 0.0835492 76.0071 0.143227 76.0071C0.208873 76.0071 0.220809 76.0364 0.220809 76.1246C0.220809 76.2187 0.220809 76.3716 0.250648 76.5186C0.411778 77.3124 1.12791 77.6064 1.85599 77.6064C2.89438 77.6064 3.40762 76.8714 3.40762 76.1834C3.40762 75.4485 3.09132 75.0192 2.16034 74.2607L1.67098 73.8668C0.519199 72.9378 0.262583 72.2734 0.262583 71.5443C0.262583 70.4036 1.12791 69.6216 2.50648 69.6216C2.93019 69.6216 3.24648 69.6627 3.51504 69.7274C3.71794 69.7686 3.80746 69.7803 3.89698 69.7803C3.98649 69.7803 4.0044 69.8039 4.0044 69.8568C4.0044 69.9097 3.96262 70.2625 3.96262 70.9916C3.96262 71.1621 3.93875 71.2385 3.88504 71.2385C3.81939 71.2385 3.80746 71.1856 3.80149 71.0974C3.78955 70.9681 3.72391 70.6799 3.65826 70.5624C3.59262 70.4448 3.30019 69.9979 2.30357 69.9979C1.5576 69.9979 0.966784 70.4565 0.966784 71.2385C0.966784 71.85 1.24727 72.2322 2.29164 73.0319L2.59599 73.2671C3.8731 74.2607 4.17746 74.9252 4.17746 75.7777C4.17746 76.2187 4.0044 77.0301 3.25842 77.5534C2.79293 77.8709 2.20809 78.0003 1.62324 78.0003C1.11598 78.0003 0.614684 77.9239 0.167098 77.7122L0.161131 77.7181Z" fill="black"/>
<path d="M9.60219 74.7017C9.54848 74.7017 9.51864 74.7311 9.49477 74.7899L8.84428 76.6832C8.7488 76.9478 8.69508 77.2065 8.69508 77.4005C8.69508 77.6122 8.90396 77.7122 9.08299 77.7122H9.17848C9.2859 77.7122 9.3217 77.7357 9.3217 77.7769C9.3217 77.8415 9.22622 77.8592 9.12477 77.8592C8.86218 77.8592 8.4325 77.8298 8.31315 77.8298C8.19379 77.8298 7.59701 77.8592 7.08975 77.8592C6.94652 77.8592 6.88684 77.8357 6.88684 77.7769C6.88684 77.7357 6.94055 77.7122 7.03604 77.7122C7.11362 77.7122 7.2091 77.7004 7.29862 77.6887C7.79991 77.624 8.01476 77.2183 8.21169 76.6832L10.6704 70.0449C10.8017 69.6921 10.8435 69.6274 10.9091 69.6274C10.9748 69.6274 11.0166 69.6804 11.1479 70.0096C11.309 70.4153 13.0158 74.8311 13.6722 76.4539C14.0601 77.4064 14.3764 77.5769 14.6032 77.6416C14.7643 77.6945 14.9374 77.7063 15.0269 77.7063C15.0926 77.7063 15.1463 77.7181 15.1463 77.771C15.1463 77.8357 15.0508 77.8533 14.9314 77.8533C14.7703 77.8533 13.9766 77.8533 13.2306 77.8298C13.0217 77.818 12.9084 77.818 12.9084 77.7533C12.9084 77.7122 12.9382 77.6887 12.9859 77.6769C13.0516 77.6534 13.1172 77.5593 13.0516 77.3888L12.043 74.7605C12.0192 74.7194 12.0012 74.6958 11.9475 74.6958H9.61413L9.60219 74.7017ZM11.7924 74.3195C11.8461 74.3195 11.8461 74.2901 11.8341 74.2431L10.8017 71.3561C10.748 71.1974 10.6943 71.1974 10.6406 71.3561L9.68574 74.2431C9.66187 74.296 9.68574 74.3195 9.71558 74.3195H11.7864H11.7924Z" fill="black"/>
<path d="M18.3987 74.7017C18.3987 70.8446 18.4226 72.2322 18.4106 70.1625C18.4106 69.745 18.4405 69.6274 18.53 69.6274C18.6195 69.6274 18.7985 69.8626 18.9119 69.9685C19.0731 70.1507 20.6903 71.8735 22.3613 73.6316C23.4355 74.7664 24.6171 76.0658 24.9633 76.4186L24.8439 70.9916C24.832 70.2977 24.7544 70.0625 24.4202 69.9744C24.2233 69.9332 24.0502 69.9214 23.9547 69.9214C23.8354 69.9214 23.8055 69.892 23.8055 69.845C23.8055 69.7803 23.895 69.7686 24.0204 69.7686C24.5097 69.7686 25.0289 69.798 25.1483 69.798C25.2676 69.798 25.6257 69.7686 26.0673 69.7686C26.1867 69.7686 26.2643 69.7803 26.2643 69.845C26.2643 69.8862 26.2225 69.9097 26.1449 69.9214C26.0614 69.9332 25.9957 69.945 25.8644 69.9626C25.5601 70.0273 25.4825 70.186 25.4825 70.9269L25.4586 77.1654C25.4586 77.8709 25.4347 77.9238 25.3631 77.9238C25.2736 77.9238 25.1483 77.8063 24.5694 77.2418C24.45 77.136 22.8865 75.566 21.7407 74.343C20.4815 73.0083 19.2581 71.6619 18.9119 71.2797L19.0552 76.401C19.079 77.2771 19.1864 77.5534 19.4789 77.6416C19.6818 77.6945 19.9265 77.7063 20.0219 77.7063C20.0756 77.7063 20.1115 77.7298 20.1115 77.771C20.1115 77.8357 20.0458 77.8533 19.9145 77.8533C19.2939 77.8533 18.8642 77.8239 18.7627 77.8239C18.6613 77.8239 18.2077 77.8533 17.7243 77.8533C17.6169 77.8533 17.5513 77.8415 17.5513 77.771C17.5513 77.7298 17.5811 77.7063 17.6408 77.7063C17.7303 77.7063 17.9213 77.6945 18.0884 77.6416C18.3569 77.5652 18.4106 77.2594 18.4106 76.2834V74.7017H18.3987Z" fill="black"/>
<path d="M31.522 73.5605C31.8562 73.243 33.3362 71.7143 33.9926 71.0381C34.6431 70.3737 34.6849 70.2678 34.6849 70.1385C34.6849 70.0562 34.6312 69.968 34.5417 69.9327C34.4641 69.9033 34.4462 69.8798 34.4462 69.8386C34.4462 69.7974 34.5118 69.7739 34.6073 69.7739C34.9236 69.7739 34.8878 69.8033 35.2578 69.8033C35.592 69.8033 36.2365 69.7739 36.4096 69.7739C36.5588 69.7739 36.5946 69.8033 36.5946 69.8504C36.5946 69.8974 36.5707 69.915 36.4752 69.9268C36.2664 69.9503 36.0754 69.9915 35.9202 70.0562C35.6457 70.162 35.4428 70.2913 34.7923 70.9087C33.8375 71.8142 32.6021 73.0255 32.3216 73.3312C33.0079 74.0662 34.9773 76.0477 35.4906 76.5181C36.3798 77.3412 36.7617 77.5764 37.2809 77.6705C37.3764 77.694 37.4838 77.6999 37.5972 77.6999C37.6867 77.6999 37.7464 77.7234 37.7464 77.7763C37.7464 77.8293 37.7046 77.8528 37.5852 77.8528H36.7856C35.8427 77.8528 35.592 77.7352 35.0847 77.3412C34.4343 76.8356 32.4828 74.7776 31.5279 73.6546V74.7541C31.5279 75.7772 31.5279 76.6239 31.5816 77.0708C31.6115 77.3824 31.6771 77.6176 32.0054 77.6587C32.1546 77.6823 32.3754 77.6999 32.441 77.6999C32.5365 77.6999 32.5723 77.7411 32.5723 77.7763C32.5723 77.8293 32.5305 77.8528 32.4112 77.8528C31.8144 77.8528 31.1341 77.8234 31.0744 77.8234C31.0147 77.8234 30.3821 77.8528 30.0539 77.8528C29.9345 77.8528 29.8808 77.841 29.8808 77.7763C29.8808 77.7469 29.9047 77.6999 30.0002 77.6999C30.0658 77.6999 30.1852 77.6881 30.2807 77.6705C30.4955 77.6294 30.5611 77.3824 30.6029 77.0708C30.6566 76.6239 30.6566 75.7772 30.6566 74.7541V72.8726C30.6566 71.2086 30.6566 70.9087 30.6328 70.5618C30.6089 70.1973 30.5015 70.015 30.2628 69.9621C30.1434 69.9327 29.9465 69.9209 29.8748 69.9209C29.7853 69.9209 29.7555 69.8974 29.7555 69.8562C29.7555 69.7916 29.8092 69.7739 29.9286 69.7739C30.2866 69.7739 31.0147 69.8033 31.0684 69.8033C31.1221 69.8033 31.8084 69.7739 32.1307 69.7739C32.25 69.7739 32.3037 69.7974 32.3037 69.8504C32.3037 69.8915 32.2799 69.915 32.1844 69.9268C32.065 69.9386 32.0531 69.9386 31.9457 69.9503C31.6533 69.9797 31.5637 70.1973 31.5458 70.5677C31.522 70.9087 31.522 71.2086 31.522 72.8785V73.5605Z" fill="black"/>
<path d="M40.8855 72.8789C40.8855 71.2149 40.8855 70.9151 40.8616 70.5682C40.8377 70.2036 40.7303 70.0213 40.4916 69.9684C40.3722 69.939 40.229 69.9273 40.1574 69.9273C40.1156 69.9273 40.0679 69.9037 40.0679 69.8626C40.0679 69.7979 40.1216 69.7803 40.2409 69.7803C40.599 69.7803 41.2793 69.8097 41.333 69.8097C41.3868 69.8097 42.0731 69.7803 42.3953 69.7803C42.5147 69.7803 42.5684 69.8038 42.5684 69.8626C42.5684 69.9037 42.5266 69.9273 42.4789 69.9273C42.4013 69.9273 42.3356 69.939 42.2043 69.9567C41.9119 70.0096 41.8224 70.1919 41.8045 70.5682C41.7806 70.9092 41.7806 71.2091 41.7806 72.8789V74.7605C41.7806 75.7836 41.7806 76.6302 41.8343 77.0771C41.8642 77.3887 41.9298 77.6239 42.2581 77.6651C42.4072 77.6886 42.64 77.7063 42.7056 77.7063C42.8011 77.7063 42.8369 77.7357 42.8369 77.7709C42.8369 77.8239 42.7952 77.8533 42.6758 77.8533C42.079 77.8533 41.3868 77.8238 41.333 77.8238C41.2793 77.8238 40.593 77.8533 40.2708 77.8533C40.1514 77.8533 40.0977 77.8297 40.0977 77.7709C40.0977 77.7415 40.1216 77.7063 40.2171 77.7063C40.2827 77.7063 40.4021 77.6945 40.4976 77.6769C40.7124 77.6357 40.778 77.3887 40.8198 77.0771C40.8735 76.6302 40.8735 75.7836 40.8735 74.7605V72.8789H40.8855Z" fill="black"/>
<path d="M21.3408 54.6746C34.5595 55.145 43.0934 48.048 42.8846 39.4635C42.7533 34.0423 36.7556 29.9911 29.1168 28.6623C21.1618 27.2806 8.30114 29.9441 3.43738 20.313C6.14079 29.6854 13.523 30.6614 19.5982 31.9609C24.8021 33.0722 33.1272 34.4833 34.1835 41.2745C34.7982 45.2257 34.6729 51.864 21.3348 54.6805L21.3408 54.6746Z" fill="#4FA149"/>
<path d="M31.8441 47.9251C29.1646 51.4706 23.6802 54.24 17.0201 54.093C10.36 53.946 4.19528 50.5592 1.61719 46.167C7.32837 50.0477 12.7292 50.8003 16.483 51.0943C19.0849 51.3001 28.3589 50.718 31.8441 47.9251Z" fill="#1D90D1"/>
<path d="M18.3628 49.8244C13.4573 50.2712 7.38802 49.0894 4.43396 46.6963C1.44409 44.2797 -0.0896379 41.7514 1.28296 36.2891C1.76635 40.5872 4.3325 43.2802 6.02736 44.9971C7.95496 46.9492 14.06 49.4304 18.3628 49.8244Z" fill="#8AB829"/>
<path d="M23.0833 0.0221325C11.7326 -0.448252 3.27021 6.64279 3.44328 15.2273C3.55667 20.6485 7.05977 24.682 14.2092 26.0285C22.1404 27.522 37.227 25.0819 42.8905 34.7071C39.7395 25.3347 29.8031 24.0235 23.7278 22.7299C18.5239 21.6187 11.8221 20.2075 10.915 13.4163C10.3898 9.4651 10.9687 2.62101 23.0833 0.0221325Z" fill="#8AB829"/>
<path d="M12.9261 6.76623C15.2297 3.2207 19.9383 0.445435 25.6555 0.59831C31.3726 0.745305 36.6661 4.13207 38.8801 8.52429C33.9746 4.64362 29.3376 3.891 26.115 3.59701C23.883 3.39122 15.916 3.97332 12.9261 6.76623Z" fill="#1D90D1"/>
<path d="M24.4977 4.86699C28.7109 4.42012 33.9208 5.60196 36.4571 7.99504C39.0233 10.4116 40.3422 12.94 39.1606 18.4023C38.7428 14.1042 36.5407 11.4112 35.0845 9.69431C33.4315 7.74221 28.1858 5.26093 24.4917 4.86699H24.4977Z" fill="#4FA149"/>
<path d="M21.2068 54.6746C34.4254 55.145 42.9594 48.048 42.7505 39.4635C42.6192 34.0423 36.6216 29.9911 28.9828 28.6623C21.0277 27.2806 8.1671 29.9441 3.30334 20.313C6.00676 29.6854 13.3889 30.6614 19.4642 31.9609C24.6681 33.0722 32.9932 34.4833 34.0495 41.2745C34.6641 45.2257 34.5388 51.864 21.2008 54.6805L21.2068 54.6746Z" fill="#4FA149"/>
<path d="M31.7101 47.9251C29.0305 51.4706 23.5461 54.24 16.8861 54.093C10.226 53.946 4.06124 50.5592 1.48315 46.167C7.19434 50.0477 12.5952 50.8003 16.349 51.0943C18.9509 51.3001 28.2249 50.718 31.7101 47.9251Z" fill="#1D90D1"/>
<path d="M18.2288 49.8244C13.3232 50.2712 7.25399 49.0894 4.29992 46.6963C1.31005 44.2797 -0.223671 41.7514 1.14892 36.2891C1.63232 40.5872 4.19847 43.2802 5.89333 44.9971C7.82093 46.9492 13.926 49.4304 18.2288 49.8244Z" fill="#8AB829"/>
<path d="M22.9492 0.0221325C11.5984 -0.448252 3.13606 6.64279 3.30913 15.2273C3.42251 20.6485 6.92561 24.682 14.075 26.0285C22.0063 27.522 37.0929 25.0819 42.7563 34.7071C39.6053 25.3347 29.6689 24.0235 23.5937 22.7299C18.3898 21.6187 11.6879 20.2075 10.7808 13.4163C10.2556 9.4651 10.8345 2.62101 22.9492 0.0221325Z" fill="#8AB829"/>
<path d="M12.7921 6.76623C15.0957 3.2207 19.8043 0.445435 25.5214 0.59831C31.2386 0.745305 36.532 4.13207 38.7461 8.52429C33.8406 4.64362 29.2036 3.891 25.981 3.59701C23.749 3.39122 15.782 3.97332 12.7921 6.76623Z" fill="#1D90D1"/>
<path d="M24.3636 4.86699C28.5769 4.42012 33.7868 5.60196 36.3231 7.99504C38.8893 10.4116 40.2081 12.94 39.0265 18.4023C38.6088 14.1042 36.4067 11.4112 34.9505 9.69431C33.2974 7.74221 28.0517 5.26093 24.3577 4.86699H24.3636Z" fill="#4FA149"/>
</svg>
