<svg width="25" height="25" viewBox="0 0 25 25" fill="none" xmlns="http://www.w3.org/2000/svg">
<path d="M22.7806 15.4833L20.9479 14.0543C20.2476 13.5083 19.3726 13.2075 18.4842 13.2075C17.4799 13.2075 16.5176 13.5805 15.7745 14.2579C15.6737 14.3499 15.5789 14.4381 15.4903 14.5226C14.6189 13.9397 13.1976 12.7174 12.6591 12.1568L12.6368 12.1335L12.6137 12.1113C12.053 11.5729 10.8308 10.1515 10.2479 9.28012C10.3325 9.19152 10.4207 9.09677 10.5127 8.99575C11.8359 7.54423 11.9215 5.36862 10.7161 3.82259L9.28716 1.98979C8.52191 1.00798 7.36886 0.444824 6.12397 0.444824C5.79322 0.444824 5.4626 0.486122 5.14123 0.567331C4.37547 0.760793 3.29443 1.47694 2.5629 2.10075C1.26281 3.20923 0.628147 4.32168 0.676929 5.40724C0.69476 5.80747 0.799805 6.41718 1.44274 7.90496C4.4437 14.8493 9.92113 20.3268 16.8657 23.3277C18.3531 23.9707 18.9631 24.0757 19.3633 24.0935C19.401 24.0953 19.4395 24.0962 19.4775 24.0962C21.7986 24.0962 23.9222 20.7412 24.2034 19.6292C24.5929 18.0882 24.0344 16.4607 22.7806 15.4833ZM6.12397 2.04305C6.85675 2.04305 7.5632 2.37741 8.02694 2.97234L9.45587 4.8051C10.18 5.73406 10.1253 7.04875 9.33174 7.91924C9.00857 8.27364 8.69117 8.5934 8.46957 8.7632C7.82322 9.25725 10.835 12.6188 11.5067 13.2639C12.09 13.8713 14.8938 16.3913 15.7914 16.3913C15.8864 16.3913 15.9601 16.363 16.0075 16.3011C16.1771 16.0791 16.4969 15.7619 16.8513 15.4389C17.3122 15.0186 17.8975 14.8056 18.4843 14.8056C19.0058 14.8056 19.5284 14.9739 19.9654 15.3148L21.7981 16.7436C22.5526 17.3318 22.8884 18.3102 22.6538 19.2377C22.466 19.9811 20.755 22.4981 19.4774 22.4981C19.4632 22.4981 19.4487 22.498 19.4348 22.4973C19.0654 22.4807 18.3713 22.2377 17.4996 21.861C10.9608 19.0352 5.73529 13.8097 2.9095 7.27108C2.53292 6.39921 2.28985 5.70501 2.27322 5.33582C2.21584 4.05412 4.78106 2.30668 5.53277 2.11669C5.72896 2.06703 5.9275 2.04305 6.12397 2.04305Z" fill="black"/>
</svg>
