<svg width="22" height="24" viewBox="0 0 22 24" fill="none" xmlns="http://www.w3.org/2000/svg">
<path d="M14.6668 12.447C14.6704 10.3302 13.0316 8.61066 11.0073 8.60698C8.98257 8.60285 7.33746 10.3153 7.33351 12.4325C7.3296 14.5497 8.96834 16.2688 10.9934 16.2729C13.0178 16.277 14.6629 14.5642 14.6668 12.447ZM16.648 12.4511C16.642 15.7125 14.1083 18.3506 10.9895 18.3442C7.87028 18.3379 5.34551 15.6898 5.35157 12.4284C5.35763 9.1681 7.89163 6.52853 11.0112 6.53491C14.1301 6.54124 16.6541 9.19042 16.648 12.4511ZM6.45996 6.29269C6.45854 7.0543 5.86625 7.67099 5.13772 7.6695C4.40892 7.66798 3.81905 7.04909 3.82012 6.28748C3.82154 5.52587 4.41387 4.90883 5.1427 4.91035C5.87154 4.91184 6.46137 5.53109 6.45996 6.29269ZM15.4274 21.8087C16.4998 21.7599 17.0821 21.5736 17.4702 21.4175C17.9842 21.2096 18.3509 20.9603 18.7369 20.5598C19.1222 20.1577 19.3613 19.7754 19.562 19.2392C19.7127 18.8335 19.8942 18.2254 19.9444 17.1042C19.999 15.8921 20.0114 15.5285 20.0167 12.4578C20.0225 9.38795 20.0118 9.02426 19.9611 7.81105C19.9152 6.69065 19.7359 6.08102 19.5869 5.67564C19.3881 5.13761 19.1503 4.75492 18.7665 4.35144C18.382 3.9479 18.0163 3.69863 17.5031 3.48884C17.1153 3.33045 16.5337 3.14227 15.4616 3.08904C14.3015 3.03163 13.954 3.01937 11.0176 3.01339C8.08057 3.00742 7.73273 3.01824 6.57223 3.07152C5.50059 3.12031 4.9175 3.30588 4.53005 3.46275C4.0158 3.67064 3.64906 3.91848 3.26342 4.32048C2.87782 4.72254 2.63865 5.10406 2.43799 5.64177C2.28657 6.04602 2.10653 6.65485 2.05591 7.77529C2.00069 8.9881 1.98819 9.35178 1.98286 12.4217C1.97719 15.4923 1.98789 15.856 2.03881 17.0685C2.08551 18.1896 2.26336 18.7989 2.41302 19.205C2.61193 19.7419 2.84963 20.1253 3.23386 20.5289C3.61804 20.9309 3.98371 21.1816 4.49727 21.3914C4.88437 21.5494 5.46669 21.7379 6.53803 21.7912C7.6981 21.8482 8.04563 21.8613 10.9831 21.8669C13.9195 21.8728 14.2669 21.8613 15.4274 21.8087ZM15.5557 1.01958C16.7261 1.07735 17.5255 1.2733 18.2241 1.55949C18.9472 1.85423 19.5602 2.24918 20.17 2.88932C20.7805 3.52981 21.1555 4.17179 21.4352 4.92855C21.7061 5.66073 21.8896 6.49686 21.9413 7.72125C21.9926 8.94789 22.0044 9.33912 21.9987 12.4619C21.993 15.5843 21.9798 15.9763 21.9239 17.2033C21.8679 18.4266 21.6811 19.262 21.4074 19.9926C21.1252 20.7487 20.7477 21.3892 20.1351 22.0271C19.5228 22.665 18.9083 23.0566 18.1841 23.3495C17.4845 23.6322 16.6844 23.8249 15.5136 23.8785C14.3404 23.9326 13.9658 23.9445 10.9795 23.9386C7.99179 23.9326 7.61719 23.9188 6.44393 23.8607C5.2735 23.8022 4.47484 23.6062 3.77556 23.3207C3.05244 23.0249 2.43945 22.6311 1.82959 21.9906C1.21982 21.3504 0.844875 20.708 0.565105 19.9509C0.29423 19.2195 0.10998 18.383 0.0590611 17.1598C0.00771332 15.9324 -0.00444603 15.5404 0.00131226 12.4179C0.00702667 9.29514 0.0205193 8.90391 0.0761204 7.67768C0.131721 6.45329 0.319195 5.61828 0.592562 4.88722C0.875168 4.13123 1.25222 3.49105 1.86452 2.8528C2.47683 2.21526 3.09129 1.82251 3.81548 1.53079C4.51544 1.2476 5.31522 1.05462 6.48599 1.0017C7.6593 0.947297 8.03386 0.935393 11.0212 0.941323C14.0079 0.947297 14.3824 0.960684 15.5557 1.01958Z" fill="white"/>
</svg>
